<svg width="449" height="552" viewBox="0 0 449 552" fill="none" xmlns="http://www.w3.org/2000/svg">
<g filter="url(#filter0_i_226_29664)">
<path fill-rule="evenodd" clip-rule="evenodd" d="M304.296 331.597L358.201 364.424L342.773 388.592L267.352 340.86L304.296 331.597Z" fill="#707EFF"/>
<path d="M236.264 316.665L248.427 297.611C249.329 296.199 251.186 295.777 252.576 296.668L304.296 331.597L267.352 340.86L237.148 320.836C235.758 319.945 235.363 318.077 236.264 316.665Z" fill="#334A70"/>
<path d="M236.264 316.665L248.427 297.611C249.329 296.199 251.186 295.777 252.576 296.668L304.296 331.597L267.352 340.86L237.148 320.836C235.758 319.945 235.363 318.077 236.264 316.665Z" fill="black" fill-opacity="0.2"/>
<path d="M427.467 382.041L408.599 411.598C405.227 416.881 399.347 419.565 393.579 419.057L426.463 367.542C429.883 371.466 430.445 377.375 427.467 382.041Z" fill="#FF6D3B"/>
<path d="M387.463 379.592L392.536 371.645C399.146 361.291 412.765 358.195 422.956 364.732L423.931 365.358C424.897 365.978 425.744 366.716 426.463 367.542L393.579 419.057C391.123 418.841 388.688 418.046 386.475 416.626L382.543 414.104L370.403 406.317L342.773 388.592L358.201 364.424L383.315 380.535C384.705 381.426 386.562 381.004 387.463 379.592Z" fill="white"/>
</g>
<path d="M254.807 293.348L306.449 328.224L360.274 361.003C360.3 361.019 360.327 361.036 360.353 361.053L384.617 376.617L389.169 369.486C396.938 357.315 413.012 353.601 425.108 361.361L426.083 361.986C427.372 362.813 428.506 363.801 429.472 364.91C434.051 370.165 434.776 378.025 430.834 384.2L411.965 413.758C407.773 420.326 400.446 423.681 393.232 423.046C390.151 422.774 387.094 421.775 384.323 419.998L380.391 417.475L368.251 409.688L340.631 391.97L340.621 391.964L265.22 344.245C265.207 344.237 265.194 344.228 265.181 344.22C265.171 344.213 265.16 344.206 265.149 344.199L234.965 324.188C231.695 322.067 230.843 317.723 232.897 314.506L245.061 295.451C247.121 292.223 251.433 291.183 254.728 293.296C254.754 293.313 254.781 293.331 254.807 293.348Z" stroke="#334A70" stroke-width="8" stroke-linejoin="round"/>
<path d="M254.807 293.348L306.449 328.224L360.274 361.003C360.3 361.019 360.327 361.036 360.353 361.053L384.617 376.617L389.169 369.486C396.938 357.315 413.012 353.601 425.108 361.361L426.083 361.986C427.372 362.813 428.506 363.801 429.472 364.91C434.051 370.165 434.776 378.025 430.834 384.2L411.965 413.758C407.773 420.326 400.446 423.681 393.232 423.046C390.151 422.774 387.094 421.775 384.323 419.998L380.391 417.475L368.251 409.688L340.631 391.97L340.621 391.964L265.22 344.245C265.207 344.237 265.194 344.228 265.181 344.22C265.171 344.213 265.16 344.206 265.149 344.199L234.965 324.188C231.695 322.067 230.843 317.723 232.897 314.506L245.061 295.451C247.121 292.223 251.433 291.183 254.728 293.296C254.754 293.313 254.781 293.331 254.807 293.348Z" stroke="black" stroke-opacity="0.2" stroke-width="8" stroke-linejoin="round"/>
<line x1="346.118" y1="388.501" x2="360.04" y2="367.888" stroke="#334A70" stroke-width="8" stroke-linecap="round"/>
<line x1="346.118" y1="388.501" x2="360.04" y2="367.888" stroke="black" stroke-opacity="0.2" stroke-width="8" stroke-linecap="round"/>
<line x1="392.929" y1="420.189" x2="425.149" y2="368.109" stroke="#334A70" stroke-width="8" stroke-linecap="round"/>
<line x1="392.929" y1="420.189" x2="425.149" y2="368.109" stroke="black" stroke-opacity="0.2" stroke-width="8" stroke-linecap="round"/>
<path d="M255.906 158.092L255.735 157.842L255.528 157.62C248.446 150.043 240.965 142.468 231.499 137.753C221.841 132.942 210.429 131.242 195.706 134.68C181.514 137.994 169.796 144.526 160.442 149.74C160.218 149.864 159.996 149.988 159.775 150.111C154.957 152.795 150.933 155.007 147.39 156.399C143.824 157.801 141.349 158.118 139.499 157.67C137.683 157.231 136.44 156.212 135.344 154.488C134.146 152.603 133.28 150.124 132.273 146.988C132.195 146.747 132.117 146.501 132.037 146.251C131.147 143.464 130.117 140.24 128.612 137.346C126.926 134.104 124.499 130.969 120.65 128.939C118.109 127.6 115.14 127.543 112.382 127.982C109.558 128.432 106.459 129.48 103.263 130.92C96.8581 133.806 89.5155 138.518 82.2598 144.312C67.8201 155.841 52.9636 172.272 46.3452 188.508C40.2765 203.394 36.3902 220.647 38.297 239.764C40.206 258.903 47.8957 279.641 64.5714 301.514C68.8318 307.102 82.6658 322.549 87.2232 327.533C95.2104 336.267 108.636 350.074 123.863 361.846C138.909 373.478 156.468 383.726 172.616 384.236C181.455 384.516 189.395 381.492 196.62 377.199C203.528 373.094 210.06 367.652 216.25 362.494C216.484 362.299 216.717 362.105 216.95 361.911C216.952 361.909 216.954 361.907 216.956 361.906L277.88 311.492L277.89 311.484C284.467 306.006 292.53 298.565 297.632 287.712C302.79 276.741 304.744 262.681 299.867 244.28C295.061 226.148 283.98 204.524 274.274 187.642C269.393 179.154 264.808 171.777 261.443 166.522C259.76 163.893 258.38 161.792 257.419 160.346C256.939 159.622 256.563 159.062 256.306 158.682C256.24 158.585 256.183 158.499 256.133 158.426C256.085 158.355 256.044 158.295 256.011 158.247L255.934 158.134L255.914 158.104L255.908 158.096L255.907 158.093C255.906 158.093 255.906 158.092 252.607 160.354L255.906 158.092Z" fill="#EEEFFC"/>
<path d="M255.906 158.092L255.735 157.842L255.528 157.62C248.446 150.043 240.965 142.468 231.499 137.753C221.841 132.942 210.429 131.242 195.706 134.68C181.514 137.994 169.796 144.526 160.442 149.74C160.218 149.864 159.996 149.988 159.775 150.111C154.957 152.795 150.933 155.007 147.39 156.399C143.824 157.801 141.349 158.118 139.499 157.67C137.683 157.231 136.44 156.212 135.344 154.488C134.146 152.603 133.28 150.124 132.273 146.988C132.195 146.747 132.117 146.501 132.037 146.251C131.147 143.464 130.117 140.24 128.612 137.346C126.926 134.104 124.499 130.969 120.65 128.939C118.109 127.6 115.14 127.543 112.382 127.982C109.558 128.432 106.459 129.48 103.263 130.92C96.8581 133.806 89.5155 138.518 82.2598 144.312C67.8201 155.841 52.9636 172.272 46.3452 188.508C40.2765 203.394 36.3902 220.647 38.297 239.764C40.206 258.903 47.8957 279.641 64.5714 301.514C68.8318 307.102 82.6658 322.549 87.2232 327.533C95.2104 336.267 108.636 350.074 123.863 361.846C138.909 373.478 156.468 383.726 172.616 384.236C181.455 384.516 189.395 381.492 196.62 377.199C203.528 373.094 210.06 367.652 216.25 362.494C216.484 362.299 216.717 362.105 216.95 361.911C216.952 361.909 216.954 361.907 216.956 361.906L277.88 311.492L277.89 311.484C284.467 306.006 292.53 298.565 297.632 287.712C302.79 276.741 304.744 262.681 299.867 244.28C295.061 226.148 283.98 204.524 274.274 187.642C269.393 179.154 264.808 171.777 261.443 166.522C259.76 163.893 258.38 161.792 257.419 160.346C256.939 159.622 256.563 159.062 256.306 158.682C256.24 158.585 256.183 158.499 256.133 158.426C256.085 158.355 256.044 158.295 256.011 158.247L255.934 158.134L255.914 158.104L255.908 158.096L255.907 158.093C255.906 158.093 255.906 158.092 252.607 160.354L255.906 158.092Z" stroke="#334A70" stroke-width="8"/>
<path d="M255.906 158.092L255.735 157.842L255.528 157.62C248.446 150.043 240.965 142.468 231.499 137.753C221.841 132.942 210.429 131.242 195.706 134.68C181.514 137.994 169.796 144.526 160.442 149.74C160.218 149.864 159.996 149.988 159.775 150.111C154.957 152.795 150.933 155.007 147.39 156.399C143.824 157.801 141.349 158.118 139.499 157.67C137.683 157.231 136.44 156.212 135.344 154.488C134.146 152.603 133.28 150.124 132.273 146.988C132.195 146.747 132.117 146.501 132.037 146.251C131.147 143.464 130.117 140.24 128.612 137.346C126.926 134.104 124.499 130.969 120.65 128.939C118.109 127.6 115.14 127.543 112.382 127.982C109.558 128.432 106.459 129.48 103.263 130.92C96.8581 133.806 89.5155 138.518 82.2598 144.312C67.8201 155.841 52.9636 172.272 46.3452 188.508C40.2765 203.394 36.3902 220.647 38.297 239.764C40.206 258.903 47.8957 279.641 64.5714 301.514C68.8318 307.102 82.6658 322.549 87.2232 327.533C95.2104 336.267 108.636 350.074 123.863 361.846C138.909 373.478 156.468 383.726 172.616 384.236C181.455 384.516 189.395 381.492 196.62 377.199C203.528 373.094 210.06 367.652 216.25 362.494C216.484 362.299 216.717 362.105 216.95 361.911C216.952 361.909 216.954 361.907 216.956 361.906L277.88 311.492L277.89 311.484C284.467 306.006 292.53 298.565 297.632 287.712C302.79 276.741 304.744 262.681 299.867 244.28C295.061 226.148 283.98 204.524 274.274 187.642C269.393 179.154 264.808 171.777 261.443 166.522C259.76 163.893 258.38 161.792 257.419 160.346C256.939 159.622 256.563 159.062 256.306 158.682C256.24 158.585 256.183 158.499 256.133 158.426C256.085 158.355 256.044 158.295 256.011 158.247L255.934 158.134L255.914 158.104L255.908 158.096L255.907 158.093C255.906 158.093 255.906 158.092 252.607 160.354L255.906 158.092Z" stroke="black" stroke-opacity="0.2" stroke-width="8"/>
<mask id="mask0_226_29664" style="mask-type:alpha" maskUnits="userSpaceOnUse" x="41" y="131" width="258" height="250">
<path d="M252.607 160.354C238.414 145.167 224.424 132.083 196.613 138.576C168.803 145.07 150.725 164.504 138.558 161.56C126.392 158.616 130.403 138.605 118.786 132.48C107.168 126.354 62.5621 159.319 50.047 190.019C38.2766 218.892 35.192 256.381 67.75 299.086C71.8791 304.502 85.5772 319.805 90.1727 324.831C106.012 342.152 143.168 379.301 172.742 380.237C188.366 380.731 201.463 369.603 214.398 358.83L275.332 308.408C288.267 297.635 305.326 280.484 296.002 245.306C286.677 210.128 252.607 160.354 252.607 160.354Z" fill="#EEEFFC"/>
</mask>
<g mask="url(#mask0_226_29664)">
<path d="M254.176 162.83C240.662 148.354 226.143 140.432 199.82 146.475C173.497 152.518 152.443 172.613 135.295 168.383C118.148 164.153 125.158 148.273 114.124 142.408C103.09 136.543 59.5532 169.779 47.8282 198.863C36.801 226.216 40.9438 263.503 71.9784 304.177C75.9142 309.335 88.9599 323.919 93.336 328.709C108.419 345.219 143.786 380.639 171.812 381.655C186.618 382.192 198.98 371.688 211.189 361.519L268.706 313.927C280.915 303.758 304.65 277.077 295.662 243.648C286.674 210.22 254.176 162.83 254.176 162.83Z" fill="#C9CEF4"/>
<path d="M280.931 231.008C286.287 249.224 289.69 266.003 283.076 284.04C276.461 302.076 253.221 319.144 238.76 330.741C183.709 374.889 161.722 371.678 130.154 348.825C98.585 325.972 62.7725 252.312 52.2118 240.033C52.2118 240.033 40.6597 221.411 73.8762 213.758C107.093 206.106 117.557 203.192 151.259 193.161C184.962 183.129 207.495 173.323 235.694 175.28C263.893 177.237 275.575 212.793 280.931 231.008Z" fill="#5260DD"/>
<g filter="url(#filter1_i_226_29664)">
<path d="M283.164 227.585C291.55 244.18 293.923 266.445 288.098 278.888C282.272 291.332 252.947 320.092 237.24 332.585C191.113 369.276 176.67 386.792 129.474 350.588C82.2792 314.383 38.4238 251.12 52.5998 226.415C52.5998 226.415 64.4068 238.86 112.022 230.886C159.637 222.912 208.652 189.764 222.682 181.2C236.713 172.636 252.592 176.302 261.54 188.073C270.488 199.844 274.778 210.991 283.164 227.585Z" fill="#707EFF"/>
</g>
<path d="M191.021 280.632C201.915 271.818 207.138 268.083 219.823 265.838" stroke="#334A70" stroke-width="8" stroke-linecap="round"/>
<path d="M191.021 280.632C201.915 271.818 207.138 268.083 219.823 265.838" stroke="black" stroke-opacity="0.2" stroke-width="8" stroke-linecap="round"/>
<ellipse cx="8.76213" cy="10.4102" rx="8.76213" ry="10.4102" transform="matrix(0.885336 -0.464952 0.464218 0.885721 150.984 250.947)" fill="#334A70"/>
<ellipse cx="8.76213" cy="10.4102" rx="8.76213" ry="10.4102" transform="matrix(0.885336 -0.464952 0.464218 0.885721 150.984 250.947)" fill="black" fill-opacity="0.2"/>
<ellipse cx="8.57621" cy="9.72492" rx="8.57621" ry="9.72492" transform="matrix(0.866438 -0.499285 0.498567 0.866851 190.494 220.465)" fill="#334A70"/>
<ellipse cx="8.57621" cy="9.72492" rx="8.57621" ry="9.72492" transform="matrix(0.866438 -0.499285 0.498567 0.866851 190.494 220.465)" fill="black" fill-opacity="0.2"/>
<path d="M118.308 141.948C117.403 148.302 118.28 163.874 129.024 175.334" stroke="#334A70" stroke-width="8" stroke-linecap="round" stroke-linejoin="round"/>
<path d="M118.308 141.948C117.403 148.302 118.28 163.874 129.024 175.334" stroke="black" stroke-opacity="0.2" stroke-width="8" stroke-linecap="round" stroke-linejoin="round"/>
</g>
<g filter="url(#filter2_i_226_29664)">
<path fill-rule="evenodd" clip-rule="evenodd" d="M206.498 396.41V455.626H235V359.135L206.498 396.41Z" fill="#707EFF"/>
<path d="M231.985 345H209.513C207.848 345 206.498 346.325 206.498 347.96V396.41L235 359.135V347.96C235 346.325 233.65 345 231.985 345Z" fill="#334A70"/>
<path d="M231.985 345H209.513C207.848 345 206.498 346.325 206.498 347.96V396.41L235 359.135V347.96C235 346.325 233.65 345 231.985 345Z" fill="black" fill-opacity="0.2"/>
<path d="M184.061 544H218.919C225.552 544 231.247 540.058 233.705 534.429H172.221C173.3 539.883 178.191 544 184.061 544Z" fill="#FF6D3B"/>
<path d="M203.483 509.303H194.111C181.9 509.303 172 519.023 172 531.012V532.159C172 532.936 172.076 533.695 172.221 534.429H233.705C234.538 532.521 235 530.42 235 528.212V523.586V509.303V455.626H206.498V506.343C206.498 507.978 205.148 509.303 203.483 509.303Z" fill="white"/>
</g>
<path d="M231.985 341H209.513C205.709 341 202.498 344.047 202.498 347.96V396.41V455.626V505.303H194.111C179.76 505.303 168 516.745 168 531.012V532.159C168 533.198 168.102 534.217 168.297 535.205C169.749 542.546 176.295 548 184.061 548H218.919C227.166 548 234.285 543.094 237.371 536.031C238.42 533.628 239 530.982 239 528.212V523.586V509.303V455.626V359.135V347.96C239 344.047 235.79 341 231.985 341Z" stroke="#334A70" stroke-width="8" stroke-linejoin="round"/>
<path d="M231.985 341H209.513C205.709 341 202.498 344.047 202.498 347.96V396.41V455.626V505.303H194.111C179.76 505.303 168 516.745 168 531.012V532.159C168 533.198 168.102 534.217 168.297 535.205C169.749 542.546 176.295 548 184.061 548H218.919C227.166 548 234.285 543.094 237.371 536.031C238.42 533.628 239 530.982 239 528.212V523.586V509.303V455.626V359.135V347.96C239 344.047 235.79 341 231.985 341Z" stroke="black" stroke-opacity="0.2" stroke-width="8" stroke-linejoin="round"/>
<path d="M221.934 311.026C220.774 283.376 224.024 223.219 250.752 220.431C277.481 217.643 366.556 208.56 415.744 205.074C419.92 217.389 427.02 255.82 422.008 311.026L279.797 312.512C264.388 334.198 227.091 376.827 201.178 373.849C175.266 370.871 204.218 330.726 221.934 311.026Z" fill="#FABF48"/>
<path d="M168.981 6.39503C181.475 3.63417 205.656 1.29806 202.427 14.0405C199.197 26.7829 178.784 14.2529 168.981 6.39503Z" fill="#22285D"/>
<path d="M168.981 6.39503C160.331 18.0756 146.376 42.0738 159.754 44.6223C173.133 47.1708 171.48 20.1993 168.981 6.39503Z" fill="#22285D"/>
<path d="M255.713 257.272C225.342 255.148 198.536 156.258 230.932 58.501C238.956 34.2903 263.6 39.6767 263.6 58.501C263.6 77.3253 201.784 130.634 197.747 44.6223M168.981 6.39503C160.331 18.0756 146.376 42.0738 159.754 44.6223C173.133 47.1708 171.48 20.1993 168.981 6.39503ZM168.981 6.39503C181.475 3.63417 205.656 1.29806 202.427 14.0405C199.197 26.7829 178.784 14.2529 168.981 6.39503Z" stroke="#334A70" stroke-width="8" stroke-linecap="round" stroke-linejoin="round"/>
<path d="M255.713 257.272C225.342 255.148 198.536 156.258 230.932 58.501C238.956 34.2903 263.6 39.6767 263.6 58.501C263.6 77.3253 201.784 130.634 197.747 44.6223M168.981 6.39503C160.331 18.0756 146.376 42.0738 159.754 44.6223C173.133 47.1708 171.48 20.1993 168.981 6.39503ZM168.981 6.39503C181.475 3.63417 205.656 1.29806 202.427 14.0405C199.197 26.7829 178.784 14.2529 168.981 6.39503Z" stroke="black" stroke-opacity="0.2" stroke-width="8" stroke-linecap="round" stroke-linejoin="round"/>
<path d="M228.351 306.421H267.948" stroke="#334A70" stroke-width="8" stroke-linecap="round" stroke-linejoin="round"/>
<path d="M228.351 306.421H267.948" stroke="black" stroke-opacity="0.2" stroke-width="8" stroke-linecap="round" stroke-linejoin="round"/>
<path d="M248.15 227.948C258.119 221.598 277.923 228.764 277.379 308.226" stroke="#334A70" stroke-width="8" stroke-linecap="round" stroke-linejoin="round"/>
<path d="M248.15 227.948C258.119 221.598 277.923 228.764 277.379 308.226" stroke="black" stroke-opacity="0.2" stroke-width="8" stroke-linecap="round" stroke-linejoin="round"/>
<ellipse cx="310.686" cy="248.335" rx="12.374" ry="12.3844" fill="#334A70"/>
<ellipse cx="310.686" cy="248.335" rx="12.374" ry="12.3844" fill="black" fill-opacity="0.2"/>
<path d="M336.017 186C320.163 186 280 190.801 280 190.801L291.098 213.739L369.915 205.998C369.915 236.071 395.219 233.576 400.674 221.792C406.129 210.008 407.339 196.816 398.905 190.801C392.172 186 374.379 186 336.651 186L336.017 186Z" fill="#707EFF"/>
<path d="M362.441 196.135C362.395 197.039 358.742 204.137 369.915 205.998M369.915 205.998L291.098 213.739L280 190.801C280 190.801 320.163 186 336.017 186C374.18 186 392.135 185.973 398.905 190.801C407.339 196.816 406.129 210.008 400.674 221.792C395.219 233.576 369.915 236.071 369.915 205.998Z" stroke="#334A70" stroke-width="8" stroke-linecap="round" stroke-linejoin="round"/>
<path d="M362.441 196.135C362.395 197.039 358.742 204.137 369.915 205.998M369.915 205.998L291.098 213.739L280 190.801C280 190.801 320.163 186 336.017 186C374.18 186 392.135 185.973 398.905 190.801C407.339 196.816 406.129 210.008 400.674 221.792C395.219 233.576 369.915 236.071 369.915 205.998Z" stroke="black" stroke-opacity="0.2" stroke-width="8" stroke-linecap="round" stroke-linejoin="round"/>
<g filter="url(#filter3_i_226_29664)">
<path d="M151 428.5C118.32 426.519 89.6329 374.052 96.6482 320.525C97.1086 317.011 99.2391 313.802 102.681 312.967C117.038 309.481 139.094 319.177 136 351.005C136 351.005 142.122 372.325 158.616 387.622C166.298 377.379 176.542 351.005 176.542 351.005C180.639 330.259 214.443 328.648 210.346 358.941C206.248 389.234 184.804 430.549 151 428.5Z" fill="#707EFF"/>
</g>
<path d="M148.268 397.421C154.469 393.427 158.616 387.622 158.616 387.622M158.616 387.622C166.298 377.379 176.542 351.005 176.542 351.005C180.639 330.259 214.443 328.648 210.346 358.941C206.248 389.234 184.804 430.549 151 428.5C118.32 426.519 89.633 374.052 96.6482 320.525C97.1086 317.011 99.2391 313.802 102.681 312.967C117.038 309.481 139.094 319.177 136 351.005C136 351.005 142.122 372.325 158.616 387.622Z" stroke="#334A70" stroke-width="8" stroke-linecap="round" stroke-linejoin="round"/>
<path d="M148.268 397.421C154.469 393.427 158.616 387.622 158.616 387.622M158.616 387.622C166.298 377.379 176.542 351.005 176.542 351.005C180.639 330.259 214.443 328.648 210.346 358.941C206.248 389.234 184.804 430.549 151 428.5C118.32 426.519 89.633 374.052 96.6482 320.525C97.1086 317.011 99.2391 313.802 102.681 312.967C117.038 309.481 139.094 319.177 136 351.005C136 351.005 142.122 372.325 158.616 387.622Z" stroke="black" stroke-opacity="0.2" stroke-width="8" stroke-linecap="round" stroke-linejoin="round"/>
<path d="M362.111 207.596L287 216.456L288.593 228.539L373 231C369.175 223.927 368.089 217.148 367.594 212.066C367.324 209.284 364.886 207.268 362.111 207.596Z" fill="#FABF48"/>
<path d="M317.006 314.292H289L293.782 548H317.006V314.292Z" fill="#334A70"/>
<path d="M317.006 314.292H289L293.782 548H317.006V314.292Z" fill="black" fill-opacity="0.2"/>
<path d="M343 133H304.065L305.165 154.76H343V133Z" fill="#334A70"/>
<path d="M343 133H304.065L305.165 154.76H343V133Z" fill="black" fill-opacity="0.2"/>
<path d="M309.947 244.91L305.165 154.76M305.165 154.76L304.065 133H343V154.76H305.165ZM289 314.292H317.006V548H293.782L289 314.292Z" stroke="#334A70" stroke-width="8" stroke-linecap="round" stroke-linejoin="round"/>
<path d="M309.947 244.91L305.165 154.76M305.165 154.76L304.065 133H343V154.76H305.165ZM289 314.292H317.006V548H293.782L289 314.292Z" stroke="black" stroke-opacity="0.2" stroke-width="8" stroke-linecap="round" stroke-linejoin="round"/>
<line x1="149" y1="548" x2="414" y2="548" stroke="#334A70" stroke-width="8" stroke-linecap="round"/>
<line x1="149" y1="548" x2="414" y2="548" stroke="black" stroke-opacity="0.2" stroke-width="8" stroke-linecap="round"/>
<path d="M212.13 508.444C220.529 510.085 226.103 514.299 226.103 514.299" stroke="#334A70" stroke-width="8" stroke-linecap="round"/>
<path d="M212.13 508.444C220.529 510.085 226.103 514.299 226.103 514.299" stroke="black" stroke-opacity="0.2" stroke-width="8" stroke-linecap="round"/>
<line x1="208.5" y1="453.923" x2="233.374" y2="453.923" stroke="#334A70" stroke-width="8" stroke-linecap="round"/>
<line x1="208.5" y1="453.923" x2="233.374" y2="453.923" stroke="black" stroke-opacity="0.2" stroke-width="8" stroke-linecap="round"/>
<line x1="171.389" y1="533.483" x2="235.886" y2="533.483" stroke="#334A70" stroke-width="8" stroke-linecap="round"/>
<line x1="171.389" y1="533.483" x2="235.886" y2="533.483" stroke="black" stroke-opacity="0.2" stroke-width="8" stroke-linecap="round"/>
<defs>
<filter id="filter0_i_226_29664" x="224.791" y="285.188" width="212.601" height="141.938" filterUnits="userSpaceOnUse" color-interpolation-filters="sRGB">
<feFlood flood-opacity="0" result="BackgroundImageFix"/>
<feBlend mode="normal" in="SourceGraphic" in2="BackgroundImageFix" result="shape"/>
<feColorMatrix in="SourceAlpha" type="matrix" values="0 0 0 0 0 0 0 0 0 0 0 0 0 0 0 0 0 0 127 0" result="hardAlpha"/>
<feOffset dx="-5" dy="-17"/>
<feGaussianBlur stdDeviation="1.5"/>
<feComposite in2="hardAlpha" operator="arithmetic" k2="-1" k3="1"/>
<feColorMatrix type="matrix" values="0 0 0 0 0.141667 0 0 0 0 0.170204 0 0 0 0 0.425 0 0 0 0.34 0"/>
<feBlend mode="darken" in2="shape" result="effect1_innerShadow_226_29664"/>
</filter>
<filter id="filter1_i_226_29664" x="49.8932" y="174.507" width="242.415" height="195.98" filterUnits="userSpaceOnUse" color-interpolation-filters="sRGB">
<feFlood flood-opacity="0" result="BackgroundImageFix"/>
<feBlend mode="normal" in="SourceGraphic" in2="BackgroundImageFix" result="shape"/>
<feColorMatrix in="SourceAlpha" type="matrix" values="0 0 0 0 0 0 0 0 0 0 0 0 0 0 0 0 0 0 127 0" result="hardAlpha"/>
<feOffset dx="1" dy="-12"/>
<feGaussianBlur stdDeviation="1"/>
<feComposite in2="hardAlpha" operator="arithmetic" k2="-1" k3="1"/>
<feColorMatrix type="matrix" values="0 0 0 0 0.321569 0 0 0 0 0.376471 0 0 0 0 0.866667 0 0 0 0.6 0"/>
<feBlend mode="normal" in2="shape" result="effect1_innerShadow_226_29664"/>
</filter>
<filter id="filter2_i_226_29664" x="161" y="334" width="82" height="218" filterUnits="userSpaceOnUse" color-interpolation-filters="sRGB">
<feFlood flood-opacity="0" result="BackgroundImageFix"/>
<feBlend mode="normal" in="SourceGraphic" in2="BackgroundImageFix" result="shape"/>
<feColorMatrix in="SourceAlpha" type="matrix" values="0 0 0 0 0 0 0 0 0 0 0 0 0 0 0 0 0 0 127 0" result="hardAlpha"/>
<feOffset dx="-11" dy="-17"/>
<feGaussianBlur stdDeviation="1.5"/>
<feComposite in2="hardAlpha" operator="arithmetic" k2="-1" k3="1"/>
<feColorMatrix type="matrix" values="0 0 0 0 0.141667 0 0 0 0 0.170204 0 0 0 0 0.425 0 0 0 0.34 0"/>
<feBlend mode="darken" in2="shape" result="effect1_innerShadow_226_29664"/>
</filter>
<filter id="filter3_i_226_29664" x="88.5831" y="305.295" width="126.104" height="127.28" filterUnits="userSpaceOnUse" color-interpolation-filters="sRGB">
<feFlood flood-opacity="0" result="BackgroundImageFix"/>
<feBlend mode="normal" in="SourceGraphic" in2="BackgroundImageFix" result="shape"/>
<feColorMatrix in="SourceAlpha" type="matrix" values="0 0 0 0 0 0 0 0 0 0 0 0 0 0 0 0 0 0 127 0" result="hardAlpha"/>
<feOffset dx="-5" dy="-17"/>
<feGaussianBlur stdDeviation="1.5"/>
<feComposite in2="hardAlpha" operator="arithmetic" k2="-1" k3="1"/>
<feColorMatrix type="matrix" values="0 0 0 0 0.321569 0 0 0 0 0.376471 0 0 0 0 0.866667 0 0 0 0.6 0"/>
<feBlend mode="normal" in2="shape" result="effect1_innerShadow_226_29664"/>
</filter>
</defs>
</svg>
