<svg width="33" height="32" viewBox="0 0 33 32" fill="none" xmlns="http://www.w3.org/2000/svg">
<rect x="0.5" width="32" height="32" rx="16" fill="#2F45C6"/>
<g clip-path="url(#clip0_180_28905)">
<path d="M17.7768 19.0893C17.9131 19.0676 18.0388 19.0457 18.165 19.0282C18.4712 18.9857 18.7727 18.9209 19.0595 18.8048C19.3795 18.6755 19.6837 18.5166 19.9547 18.2977C20.2542 18.0557 20.472 17.7548 20.6261 17.4047C20.8869 16.8125 20.9689 16.1894 20.9579 15.5476C20.9526 15.2276 20.8974 14.918 20.7861 14.6208C20.6728 14.3182 20.501 14.0466 20.2844 13.8052C20.2545 13.7719 20.2466 13.7474 20.2658 13.6976C20.3939 13.3604 20.4179 13.0085 20.3754 12.6541C20.3458 12.4076 20.2753 12.1687 20.1855 11.9368C20.1776 11.9163 20.1477 11.896 20.1246 11.8912C19.9649 11.858 19.8052 11.8799 19.6536 11.9264C19.2789 12.0416 18.9248 12.2067 18.5876 12.4067C18.4912 12.4639 18.3983 12.5268 18.3016 12.5831C18.2757 12.5983 18.2397 12.6096 18.2112 12.6045C18.1106 12.5873 18.0118 12.562 17.912 12.5406C17.8354 12.5239 17.7593 12.5056 17.6821 12.4927C17.5196 12.4656 17.357 12.4375 17.1934 12.4177C17.0562 12.4011 16.9176 12.3867 16.7798 12.3879C16.466 12.3907 16.1513 12.3929 15.8383 12.4158C15.6242 12.4315 15.4118 12.4786 15.1997 12.5172C15.0768 12.5394 14.9557 12.5727 14.834 12.6006C14.7748 12.6141 14.7213 12.6079 14.6683 12.5707C14.4506 12.4177 14.2207 12.2845 13.9753 12.1811C13.7592 12.0901 13.5401 12.0045 13.3184 11.9287C13.1719 11.8785 13.0161 11.8673 12.8614 11.8915C12.8414 11.8946 12.8132 11.916 12.8082 11.9343C12.7513 12.1332 12.6932 12.3321 12.6456 12.5332C12.6194 12.6434 12.5994 12.7583 12.5997 12.871C12.6003 13.0245 12.6132 13.1798 12.6386 13.3311C12.6611 13.4654 12.7104 13.595 12.7425 13.728C12.7476 13.7488 12.7318 13.7815 12.7158 13.7998C12.5687 13.9694 12.4321 14.1472 12.3366 14.3509C12.267 14.4996 12.2061 14.6532 12.1532 14.8087C12.0151 15.2124 12.0278 15.6316 12.0478 16.0485C12.0577 16.2544 12.0853 16.4621 12.1318 16.6626C12.2247 17.0658 12.3588 17.4551 12.5901 17.8044C12.8251 18.1594 13.1443 18.4169 13.5167 18.6132C13.7728 18.7482 14.037 18.864 14.3201 18.9293C14.4861 18.9676 14.6543 18.9969 14.8219 19.0271C14.9478 19.0499 15.0746 19.0676 15.2115 19.0893C15.196 19.1102 15.1853 19.1293 15.1704 19.1446C15.0064 19.3116 14.9086 19.5167 14.836 19.735C14.8154 19.7964 14.8086 19.8627 14.7996 19.9272C14.7903 19.9937 14.7638 20.0376 14.6957 20.0649C14.3804 20.1911 14.0519 20.23 13.7181 20.2004C13.5184 20.1827 13.3437 20.0841 13.1817 19.9646C12.9761 19.8131 12.8428 19.604 12.7082 19.3944C12.5177 19.0981 12.2512 18.8981 11.9205 18.7797C11.7976 18.7358 11.6717 18.7183 11.5427 18.7307C11.4996 18.7347 11.4559 18.7465 11.4154 18.7625C11.3573 18.7857 11.3446 18.84 11.3759 18.8964C11.4455 19.0212 11.5492 19.1127 11.6706 19.1817C11.8385 19.2772 11.9557 19.4201 12.0704 19.5702C12.2512 19.8074 12.3478 20.0866 12.478 20.3497C12.6225 20.6419 12.8701 20.8244 13.1693 20.9377C13.3846 21.0191 13.6111 21.0459 13.8401 21.0543C13.919 21.0571 13.9984 21.0783 14.0765 21.0738C14.297 21.0614 14.5171 21.0399 14.7464 21.0214C14.7483 21.034 14.7551 21.058 14.7554 21.0822C14.7607 21.4786 14.7667 21.875 14.7692 22.2713C14.77 22.4195 14.7247 22.5488 14.5824 22.6212C14.4737 22.6767 14.3534 22.6725 14.2475 22.6305C13.9235 22.5032 13.597 22.3781 13.286 22.2232C13.0186 22.0899 12.7665 21.9243 12.5163 21.76C12.1092 21.4927 11.7498 21.1678 11.4159 20.814C11.0773 20.4551 10.7784 20.0646 10.5201 19.6463C10.3519 19.3739 10.2079 19.0843 10.0769 18.7916C9.96029 18.5313 9.8662 18.2594 9.7814 17.9867C9.71576 17.7757 9.67689 17.5557 9.63069 17.3388C9.51321 16.7857 9.48391 16.2257 9.50758 15.6625C9.51603 15.4614 9.52842 15.2591 9.55716 15.0602C9.58927 14.8374 9.6366 14.6165 9.68759 14.3971C9.7352 14.1923 9.78507 13.9869 9.85352 13.7886C9.93804 13.5432 10.0375 13.3023 10.1403 13.0637C10.2868 12.7234 10.4756 12.4048 10.6818 12.0985C10.8336 11.8732 11.0026 11.6582 11.1765 11.4489C11.4621 11.1052 11.7853 10.7984 12.1357 10.5207C12.5033 10.2296 12.8952 9.97609 13.3124 9.76199C13.6902 9.56789 14.0798 9.40139 14.4914 9.2918C14.67 9.24419 14.8478 9.19067 15.0292 9.15686C15.2799 9.10982 15.5335 9.07601 15.7865 9.04164C16.2229 8.9822 16.6615 8.996 17.099 9.02389C17.3173 9.03798 17.5357 9.06756 17.7512 9.107C18.2157 9.1918 18.6693 9.318 19.1073 9.49633C19.6533 9.71861 20.1627 10.0057 20.6399 10.3522C21.0481 10.6486 21.4166 10.988 21.751 11.3641C22.0395 11.6884 22.291 12.0405 22.5144 12.4127C22.7133 12.7442 22.8854 13.0893 23.0252 13.4494C23.1565 13.7872 23.2711 14.1308 23.3342 14.4892C23.3756 14.7236 23.4083 14.9594 23.4463 15.194C23.5063 15.5637 23.5078 15.9361 23.4903 16.308C23.4787 16.5525 23.4469 16.7965 23.4185 17.0401C23.3762 17.403 23.2906 17.7568 23.1815 18.105C23.0407 18.5544 22.8539 18.9831 22.624 19.3942C22.3908 19.8114 22.1155 20.199 21.8068 20.5624C21.4991 20.9244 21.1577 21.2524 20.781 21.5437C20.3601 21.8693 19.9102 22.1468 19.4226 22.3601C19.2017 22.4567 18.9794 22.5525 18.7515 22.6302C18.5929 22.6843 18.396 22.6846 18.296 22.5012C18.2715 22.4564 18.2495 22.4035 18.2484 22.3539C18.2428 22.1031 18.2439 21.8519 18.2436 21.6011C18.243 21.2374 18.2464 20.874 18.2422 20.5103C18.2402 20.3371 18.2388 20.1621 18.2123 19.9917C18.1616 19.6652 18.0506 19.3615 17.8038 19.1246C17.7957 19.1167 17.7898 19.1071 17.7762 19.0899L17.7768 19.0893Z" fill="white"/>
</g>
<defs>
<clipPath id="clip0_180_28905">
<rect width="16" height="16" fill="white" transform="translate(8.5 8)"/>
</clipPath>
</defs>
</svg>
