<svg width="17" height="16" viewBox="0 0 17 16" fill="none" xmlns="http://www.w3.org/2000/svg">
<g id="riot_icon" clip-path="url(#clip0_316_2067)">
<g id="_00Xh5j.tif">
<path id="Vector" d="M9.7768 11.0893C9.91315 11.0676 10.0388 11.0457 10.165 11.0282C10.4712 10.9857 10.7727 10.9209 11.0595 10.8048C11.3795 10.6755 11.6837 10.5166 11.9547 10.2977C12.2542 10.0557 12.472 9.75485 12.6261 9.40468C12.8869 8.81251 12.9689 8.18935 12.9579 7.5476C12.9526 7.22757 12.8974 6.91796 12.7861 6.62075C12.6728 6.31819 12.501 6.04662 12.2844 5.80518C12.2545 5.77194 12.2466 5.74743 12.2658 5.69757C12.3939 5.36035 12.4179 5.00849 12.3754 4.65409C12.3458 4.40759 12.2753 4.16869 12.1855 3.93684C12.1776 3.91628 12.1477 3.89599 12.1246 3.8912C11.9649 3.85796 11.8052 3.87993 11.6536 3.92642C11.2789 4.04164 10.9248 4.20673 10.5876 4.40674C10.4912 4.46393 10.3983 4.52676 10.3016 4.5831C10.2757 4.59831 10.2397 4.60958 10.2112 4.60451C10.1106 4.58732 10.0118 4.56197 9.91202 4.54056C9.8354 4.52394 9.75933 4.50563 9.68214 4.49267C9.51959 4.46562 9.35704 4.43745 9.19336 4.41773C9.05617 4.40111 8.91756 4.38674 8.77981 4.38787C8.46597 4.39069 8.1513 4.39294 7.83831 4.41576C7.6242 4.43153 7.41179 4.47858 7.19966 4.51718C7.07683 4.53943 6.95569 4.57267 6.83399 4.60056C6.77483 4.61409 6.7213 4.60789 6.66834 4.5707C6.45057 4.41773 6.22069 4.28448 5.97532 4.18109C5.75924 4.09009 5.54007 4.00445 5.31835 3.92867C5.17186 3.87853 5.01607 3.86726 4.86141 3.89148C4.84141 3.89458 4.81324 3.91599 4.80817 3.93431C4.75126 4.1332 4.69323 4.33209 4.64562 4.53323C4.61942 4.64339 4.59941 4.75833 4.5997 4.87101C4.60026 5.02455 4.61322 5.17977 4.63857 5.33106C4.66111 5.46543 4.71041 5.59502 4.74253 5.72799C4.7476 5.74884 4.73182 5.78152 4.71576 5.79983C4.56871 5.96942 4.43207 6.14719 4.33657 6.35087C4.26699 6.49962 4.20614 6.65315 4.15318 6.80866C4.01513 7.21236 4.02781 7.63155 4.04781 8.04849C4.05767 8.25443 4.08528 8.46205 4.13176 8.66263C4.22473 9.06577 4.35883 9.4551 4.59012 9.80443C4.82507 10.1594 5.14425 10.4169 5.51668 10.6132C5.77276 10.7482 6.03701 10.864 6.32014 10.9293C6.48607 10.9676 6.65425 10.9969 6.82188 11.0271C6.9478 11.0499 7.07457 11.0676 7.21149 11.0893C7.19599 11.1102 7.18529 11.1293 7.17036 11.1446C7.0064 11.3116 6.90864 11.5167 6.83596 11.735C6.8154 11.7964 6.80863 11.8627 6.79962 11.9272C6.79032 11.9937 6.76384 12.0376 6.69567 12.0649C6.38043 12.1911 6.05194 12.23 5.71811 12.2004C5.51837 12.1827 5.34371 12.0841 5.18172 11.9646C4.97607 11.8131 4.84282 11.604 4.70816 11.3944C4.51772 11.0981 4.25121 10.8981 3.92048 10.7797C3.79765 10.7358 3.67172 10.7183 3.5427 10.7307C3.49959 10.7347 3.45593 10.7465 3.41536 10.7625C3.35733 10.7857 3.34465 10.84 3.37592 10.8964C3.4455 11.0212 3.54918 11.1127 3.67059 11.1817C3.8385 11.2772 3.95569 11.4201 4.07035 11.5702C4.25121 11.8074 4.34784 12.0866 4.47799 12.3497C4.62251 12.6419 4.87014 12.8244 5.16933 12.9377C5.38456 13.0191 5.61106 13.0459 5.84009 13.0543C5.91897 13.0571 5.99842 13.0783 6.07645 13.0738C6.29704 13.0614 6.51706 13.0399 6.74638 13.0214C6.74835 13.034 6.75511 13.058 6.75539 13.0822C6.76074 13.4786 6.76666 13.875 6.76919 14.2713C6.77004 14.4195 6.72468 14.5488 6.58242 14.6212C6.47367 14.6767 6.35338 14.6725 6.24746 14.6305C5.92348 14.5032 5.59697 14.3781 5.28596 14.2232C5.01861 14.0899 4.76647 13.9243 4.51631 13.76C4.10923 13.4927 3.74976 13.1678 3.41592 12.814C3.0773 12.4551 2.7784 12.0646 2.52006 11.6463C2.35188 11.3739 2.20792 11.0843 2.07692 10.7916C1.96029 10.5313 1.8662 10.2594 1.7814 9.9867C1.71576 9.7757 1.67689 9.55568 1.63069 9.33875C1.51321 8.78574 1.48391 8.22569 1.50758 7.66254C1.51603 7.4614 1.52842 7.25912 1.55716 7.06023C1.58927 6.83739 1.6366 6.61653 1.68759 6.39707C1.7352 6.19226 1.78507 5.98689 1.85352 5.78856C1.93804 5.54319 2.03748 5.30232 2.14031 5.06371C2.2868 4.72339 2.47555 4.40477 2.68177 4.09855C2.83362 3.87317 3.00265 3.65822 3.17646 3.44891C3.46212 3.10521 3.78525 2.79842 4.13571 2.52065C4.50335 2.22964 4.89522 1.97609 5.31244 1.76199C5.69022 1.56789 6.07983 1.40139 6.49142 1.2918C6.67003 1.24419 6.84779 1.19067 7.02922 1.15686C7.27995 1.10982 7.53349 1.07601 7.78647 1.04164C8.22285 0.982198 8.66148 0.996002 9.09899 1.02389C9.31732 1.03798 9.53565 1.06756 9.75116 1.107C10.2157 1.1918 10.6693 1.318 11.1073 1.49633C11.6533 1.71861 12.1627 2.00567 12.6399 2.35219C13.0481 2.64855 13.4166 2.98802 13.751 3.36411C14.0395 3.68837 14.291 4.04051 14.5144 4.41266C14.7133 4.74424 14.8854 5.08934 15.0252 5.44938C15.1565 5.78715 15.2711 6.13085 15.3342 6.48919C15.3756 6.72358 15.4083 6.95938 15.4463 7.19405C15.5063 7.56366 15.5078 7.93609 15.4903 8.30795C15.4787 8.55248 15.4469 8.79645 15.4185 9.04014C15.3762 9.40299 15.2906 9.75682 15.1815 10.105C15.0407 10.5544 14.8539 10.9831 14.624 11.3942C14.3908 11.8114 14.1155 12.199 13.8068 12.5624C13.4991 12.9244 13.1577 13.2524 12.781 13.5437C12.3601 13.8693 11.9102 14.1468 11.4226 14.3601C11.2017 14.4567 10.9794 14.5525 10.7515 14.6302C10.5929 14.6843 10.396 14.6846 10.296 14.5012C10.2715 14.4564 10.2495 14.4035 10.2484 14.3539C10.2428 14.1031 10.2439 13.8519 10.2436 13.6011C10.243 13.2374 10.2464 12.874 10.2422 12.5103C10.2402 12.3371 10.2388 12.1621 10.2123 11.9917C10.1616 11.6652 10.0506 11.3615 9.80384 11.1246C9.79568 11.1167 9.78976 11.1071 9.77624 11.0899L9.7768 11.0893Z" fill="white"/>
</g>
</g>
<defs>
<clipPath id="clip0_316_2067">
<rect width="16" height="16" fill="white" transform="translate(0.5)"/>
</clipPath>
</defs>
</svg>
