<svg width="18" height="17" viewBox="0 0 18 17" fill="none" xmlns="http://www.w3.org/2000/svg">
<path d="M9.0009 16.4697H8.98836C6.67499 16.4283 0 10.6235 0 5.12559C0 2.48438 2.26142 0.165558 4.83899 0.165558C6.88994 0.165558 8.26918 1.52754 9 2.51886C9.72903 1.52927 11.1083 0.165558 13.1601 0.165558C15.7395 0.165558 18 2.48438 18 5.12646C18 10.6227 11.3241 16.4275 9.01075 16.468H9.0009V16.4697ZM4.83988 1.45944C2.97701 1.45944 1.34431 3.17313 1.34431 5.12732C1.34431 10.0753 7.64404 15.1233 9.00179 15.1767C10.3613 15.1233 16.6593 10.0761 16.6593 5.12732C16.6593 3.17313 15.0266 1.45944 13.1637 1.45944C10.8996 1.45944 9.63499 3.99032 9.62424 4.01532C9.41825 4.49977 8.58891 4.49977 8.38203 4.01532C8.36949 3.98946 7.10578 1.45944 4.84078 1.45944H4.83988Z" fill="##ba1717"/>
</svg>
