<svg width="33" height="32" viewBox="0 0 33 32" fill="none" xmlns="http://www.w3.org/2000/svg">
<rect x="0.5" width="32" height="32" rx="16" fill="#EDEFF3"/>
<g clip-path="url(#clip0_180_28923)">
<path d="M16.4894 9.00078C16.8507 9.01479 17.199 9.0689 17.5486 9.17206C17.8974 9.27521 18.1967 9.45467 18.4723 9.67071C18.6833 9.83615 18.8383 10.0608 18.8593 10.3512C18.8717 10.5244 18.8947 10.6976 18.922 10.8693C18.9652 11.1449 19.2209 11.199 19.4432 11.1285C19.5977 11.0795 19.7355 10.979 19.8866 10.9156C20.0314 10.8549 20.1805 10.7895 20.3338 10.7653C20.69 10.7101 21.0505 10.7007 21.4028 10.7926C21.6426 10.8553 21.8866 10.9191 22.1093 11.0238C22.3623 11.1425 22.592 11.3088 22.7901 11.5123C22.8905 11.6155 23.005 11.7062 23.1 11.814C23.1841 11.9098 23.2502 12.0219 23.3234 12.1274C23.5332 12.4287 23.5005 12.767 23.4569 13.0998C23.3892 13.6148 23.1299 14.0379 22.7796 14.4093C22.4915 14.7145 22.1766 14.9897 21.8407 15.2411C21.699 15.347 21.7052 15.3774 21.8407 15.4868C22.0462 15.6526 22.2568 15.8141 22.4503 15.9936C22.7629 16.2836 23.0587 16.5935 23.2518 16.9785C23.3744 17.2233 23.4636 17.4826 23.4865 17.7621C23.5118 18.0684 23.5075 18.3736 23.4207 18.6675C23.3596 18.8746 23.2689 19.0758 23.1662 19.2662C23.0264 19.525 22.8364 19.7493 22.6184 19.949C22.3417 20.202 22.0287 20.3958 21.6768 20.522C21.381 20.6278 21.0699 20.7049 20.7589 20.6831C20.4771 20.6637 20.1917 20.6204 19.922 20.5033C19.6896 20.4021 19.472 20.2853 19.2754 20.1265C19.1999 20.0657 19.1185 20.0969 19.117 20.1923C19.1139 20.4274 19.029 20.6426 18.9543 20.8571C18.899 21.0159 18.8087 21.1662 18.7137 21.3063C18.4914 21.6341 18.1979 21.8867 17.846 22.0697C17.3178 22.3441 16.7572 22.4422 16.1675 22.3632C15.9857 22.3387 15.7989 22.32 15.6272 22.2608C15.4248 22.1911 15.2255 22.0977 15.0456 21.9821C14.8521 21.8579 14.6684 21.7104 14.5073 21.5465C14.3286 21.3651 14.2032 21.1401 14.1005 20.9046C14.0028 20.6808 13.949 20.4472 13.9199 20.2059C13.9054 20.0856 13.842 20.0591 13.7482 20.1358C13.5103 20.3304 13.2394 20.4647 12.9525 20.564C12.8139 20.6119 12.6633 20.6282 12.5173 20.6531C12.4161 20.6707 12.3118 20.696 12.2113 20.6878C12.0159 20.6714 11.8174 20.6524 11.6298 20.6002C11.4083 20.5391 11.1845 20.4644 10.984 20.355C10.7742 20.2401 10.5811 20.0887 10.3985 19.9322C10.1774 19.7423 9.99446 19.5138 9.85822 19.2541C9.75234 19.0521 9.64334 18.8501 9.6052 18.6196C9.58301 18.4865 9.55303 18.3545 9.52111 18.2233C9.48063 18.0567 9.50321 17.896 9.54797 17.7344C9.60208 17.5394 9.63634 17.3374 9.70757 17.149C9.83759 16.8068 10.0501 16.516 10.3187 16.2657C10.4503 16.1431 10.5725 16.01 10.7068 15.8904C10.8586 15.7554 11.019 15.6308 11.1759 15.5012C11.2031 15.4786 11.2331 15.458 11.2565 15.4315C11.302 15.3797 11.3051 15.3307 11.2436 15.2832C11.1132 15.1828 10.9797 15.0854 10.8571 14.9757C10.629 14.7721 10.3915 14.5751 10.1875 14.3493C9.88313 14.0126 9.6702 13.6179 9.57795 13.1683C9.54875 13.0266 9.54213 12.8806 9.52578 12.7366C9.50632 12.5641 9.5869 12.4139 9.65191 12.2675C9.83681 11.8522 10.1673 11.554 10.5122 11.2753C10.636 11.1752 10.7835 11.1032 10.9244 11.0258C10.9941 10.9872 11.0731 10.9662 11.1475 10.9362C11.4157 10.8272 11.6948 10.7603 11.9821 10.7373C12.1518 10.7237 12.3238 10.7373 12.4947 10.7408C12.7524 10.7466 12.9891 10.8342 13.2192 10.9405C13.3274 10.9903 13.4282 11.0553 13.5329 11.1126C13.7544 11.234 13.9023 11.2068 14.0635 11.0145C14.0818 10.9927 14.1028 10.9662 14.1063 10.9397C14.1266 10.7731 14.1448 10.6065 14.1581 10.4395C14.1756 10.2192 14.2173 10.0113 14.3936 9.85444C14.5041 9.75596 14.6011 9.6419 14.7159 9.54965C14.9588 9.35423 15.2367 9.2285 15.5419 9.16116C15.7113 9.12379 15.8767 9.06734 16.0472 9.03737C16.1928 9.01168 16.343 9.01129 16.491 9L16.4894 9.00078ZM16.4828 16.6581C16.5614 16.6499 16.6167 16.6487 16.67 16.6382C16.837 16.6059 17.0025 16.5635 17.1706 16.5374C17.3372 16.5117 17.4669 16.4432 17.5572 16.2949C17.6525 16.1376 17.6378 15.9375 17.5054 15.7725C17.3991 15.6398 17.1687 15.5658 17.025 15.6215C16.6946 15.7491 16.3602 15.7511 16.032 15.6292C15.8487 15.5611 15.6572 15.6421 15.547 15.7561C15.294 16.0177 15.4423 16.4444 15.7588 16.5109C15.8249 16.525 15.8892 16.5475 15.9553 16.5604C16.1383 16.5962 16.3216 16.6285 16.4832 16.6585L16.4828 16.6581ZM19.0975 15.6039C19.1026 15.6039 19.108 15.6039 19.1131 15.6039C19.1131 15.4809 19.1104 15.3579 19.1139 15.2353C19.1178 15.103 19.0971 14.9827 19.0212 14.8674C18.9305 14.7289 18.7869 14.6654 18.6506 14.681C18.389 14.7114 18.201 14.8254 18.187 15.1236C18.1703 15.4778 18.187 15.8348 18.2092 16.1894C18.2256 16.4564 18.4505 16.56 18.6576 16.5724C18.8706 16.5853 19.0745 16.4066 19.094 16.1851C19.1111 15.9928 19.0975 15.7978 19.0975 15.6039ZM14.8362 15.6269C14.8362 15.6269 14.837 15.6269 14.8377 15.6269C14.8377 15.4393 14.8409 15.2517 14.8354 15.064C14.8339 15.0158 14.8156 14.9617 14.7883 14.9219C14.6322 14.6934 14.5053 14.6467 14.2387 14.7102C14.095 14.7444 13.937 14.9231 13.9362 15.0636C13.9343 15.4323 13.935 15.8013 13.9385 16.1699C13.9389 16.2159 13.9572 16.2641 13.9767 16.3066C14.0721 16.5148 14.3301 16.6312 14.5629 16.5339C14.705 16.4743 14.8319 16.3342 14.835 16.1797C14.8385 15.9952 14.8358 15.811 14.8358 15.6265L14.8362 15.6269Z" fill="#96A4B6"/>
<path d="M16.4824 16.6581C16.3209 16.6281 16.1375 16.5958 15.9546 16.56C15.8884 16.5471 15.8242 16.5246 15.758 16.5106C15.4411 16.444 15.2932 16.0174 15.5462 15.7558C15.6568 15.6417 15.8483 15.5611 16.0313 15.6289C16.3598 15.7507 16.6942 15.7488 17.0243 15.6211C17.1679 15.5658 17.398 15.6394 17.5047 15.7721C17.637 15.9376 17.6518 16.1376 17.5564 16.2945C17.4665 16.4428 17.3369 16.5113 17.1699 16.537C17.0017 16.5631 16.8363 16.6055 16.6693 16.6378C16.616 16.6484 16.5607 16.6499 16.482 16.6577L16.4824 16.6581Z" fill="white"/>
<path d="M19.0969 15.6038C19.0969 15.7977 19.1105 15.9927 19.0934 16.185C19.074 16.4061 18.87 16.5852 18.657 16.5723C18.45 16.5599 18.225 16.4563 18.2086 16.1893C18.1868 15.8347 18.1697 15.4777 18.1864 15.1235C18.2004 14.8253 18.3885 14.7112 18.65 14.6809C18.7863 14.6649 18.9299 14.7287 19.0206 14.8673C19.0965 14.9825 19.1172 15.1028 19.1133 15.2352C19.1098 15.3582 19.1125 15.4812 19.1125 15.6038C19.1074 15.6038 19.102 15.6038 19.0969 15.6038Z" fill="white"/>
<path d="M14.8364 15.6269C14.8364 15.8114 14.8391 15.9959 14.8356 16.18C14.8325 16.3346 14.7056 16.4747 14.5635 16.5343C14.3311 16.6316 14.0726 16.5152 13.9772 16.3069C13.9578 16.2641 13.9395 16.2158 13.9391 16.1703C13.9356 15.8017 13.9344 15.4326 13.9368 15.064C13.9375 14.9235 14.0956 14.7448 14.2392 14.7105C14.5059 14.6471 14.6328 14.6934 14.7889 14.9223C14.8161 14.9624 14.8344 15.0165 14.836 15.0644C14.8414 15.252 14.8383 15.4396 14.8383 15.6273C14.8379 15.6273 14.8375 15.6273 14.8368 15.6273L14.8364 15.6269Z" fill="white"/>
</g>
<defs>
<clipPath id="clip0_180_28923">
<rect width="16" height="16" fill="white" transform="translate(8.5 8)"/>
</clipPath>
</defs>
</svg>
