<svg width="17" height="16" viewBox="0 0 17 16" fill="none" xmlns="http://www.w3.org/2000/svg">
<g id="home_black_24dp 3" clip-path="url(#clip0_316_2085)">
<g id="EXZXAI.tif">
<path id="Vector" d="M8.48941 1.00078C8.85066 1.01479 9.19905 1.0689 9.54861 1.17206C9.8974 1.27521 10.1967 1.45467 10.4723 1.67071C10.6833 1.83615 10.8383 2.06076 10.8593 2.35115C10.8717 2.52438 10.8947 2.6976 10.922 2.86927C10.9652 3.14487 11.2209 3.19898 11.4432 3.12852C11.5977 3.07947 11.7355 2.97904 11.8866 2.91559C12.0314 2.85487 12.1805 2.78947 12.3338 2.76533C12.69 2.71006 13.0505 2.70072 13.4028 2.79258C13.6426 2.85525 13.8866 2.91909 14.1093 3.02381C14.3623 3.14254 14.592 3.30875 14.7901 3.51234C14.8905 3.6155 15.005 3.7062 15.1 3.81402C15.1841 3.90978 15.2502 4.02189 15.3234 4.12738C15.5332 4.42868 15.5005 4.76695 15.4569 5.09978C15.3892 5.61478 15.1299 6.03792 14.7796 6.40928C14.4915 6.71447 14.1766 6.98968 13.8407 7.24115C13.699 7.34703 13.7052 7.37739 13.8407 7.48677C14.0462 7.6526 14.2568 7.81415 14.4503 7.9936C14.7629 8.28361 15.0587 8.59347 15.2518 8.97845C15.3744 9.2233 15.4636 9.48256 15.4865 9.76205C15.5118 10.0684 15.5075 10.3736 15.4207 10.6675C15.3596 10.8746 15.2689 11.0758 15.1662 11.2662C15.0264 11.525 14.8364 11.7493 14.6184 11.949C14.3417 12.202 14.0287 12.3958 13.6768 12.522C13.381 12.6278 13.0699 12.7049 12.7589 12.6831C12.4771 12.6637 12.1917 12.6204 11.922 12.5033C11.6896 12.4021 11.472 12.2853 11.2754 12.1265C11.1999 12.0657 11.1185 12.0969 11.117 12.1923C11.1139 12.4274 11.029 12.6426 10.9543 12.8571C10.899 13.0159 10.8087 13.1662 10.7137 13.3063C10.4914 13.6341 10.1979 13.8867 9.84601 14.0697C9.31778 14.3441 8.75723 14.4422 8.16749 14.3632C7.9857 14.3387 7.79885 14.32 7.62718 14.2608C7.42476 14.1911 7.22546 14.0977 7.04562 13.9821C6.85215 13.8579 6.66841 13.7104 6.50726 13.5465C6.32858 13.3651 6.20324 13.1401 6.10047 12.9046C6.00276 12.6808 5.94905 12.4472 5.91985 12.2059C5.90545 12.0856 5.842 12.0591 5.74818 12.1358C5.51034 12.3304 5.23941 12.4647 4.95252 12.564C4.81394 12.6119 4.66329 12.6282 4.51731 12.6531C4.41611 12.6707 4.31178 12.696 4.21135 12.6878C4.01594 12.6714 3.81741 12.6524 3.62978 12.6002C3.40829 12.5391 3.18446 12.4644 2.98399 12.355C2.77417 12.2401 2.58109 12.0887 2.39853 11.9322C2.17742 11.7423 1.99446 11.5138 1.85822 11.2541C1.75234 11.0521 1.64334 10.8501 1.6052 10.6196C1.58301 10.4865 1.55303 10.3545 1.52111 10.2233C1.48063 10.0567 1.50321 9.89596 1.54797 9.73441C1.60208 9.53939 1.63634 9.33736 1.70757 9.14895C1.83759 8.80679 2.05013 8.516 2.31873 8.2657C2.4503 8.14308 2.57253 8.00995 2.70683 7.89045C2.85864 7.75537 3.01902 7.6308 3.17589 7.50118C3.20314 7.4786 3.23312 7.45797 3.25647 7.4315C3.30202 7.37973 3.30513 7.33068 3.24363 7.28319C3.11322 7.18276 2.9797 7.08544 2.85708 6.97566C2.62897 6.77208 2.39152 6.57511 2.18754 6.34933C1.88313 6.01261 1.6702 5.61789 1.57795 5.16829C1.54875 5.0266 1.54213 4.88062 1.52578 4.73659C1.50632 4.56414 1.5869 4.41389 1.65191 4.26752C1.83681 3.85217 2.1673 3.55399 2.51219 3.27528C2.63598 3.17523 2.78351 3.10322 2.92443 3.02575C2.99411 2.98722 3.07313 2.9662 3.14748 2.93622C3.41568 2.82723 3.69479 2.76027 3.98207 2.73731C4.15179 2.72368 4.32385 2.73731 4.49474 2.74081C4.75243 2.74665 4.98911 2.83423 5.21917 2.9405C5.32738 2.99033 5.4282 3.05534 5.53292 3.11256C5.75441 3.23401 5.90233 3.20676 6.06349 3.01447C6.08179 2.99267 6.10281 2.9662 6.10631 2.93973C6.12655 2.77312 6.14485 2.60651 6.15808 2.43952C6.1756 2.21919 6.21725 2.01132 6.39359 1.85444C6.50414 1.75596 6.60107 1.6419 6.71591 1.54965C6.95881 1.35423 7.23675 1.2285 7.54193 1.16116C7.71127 1.12379 7.8767 1.06734 8.0472 1.03737C8.19279 1.01168 8.34305 1.01129 8.49097 1L8.48941 1.00078ZM8.4828 8.65808C8.56143 8.64991 8.6167 8.64874 8.67003 8.63823C8.83703 8.60592 9.00247 8.56349 9.17063 8.53741C9.33724 8.51172 9.46687 8.44321 9.55718 8.2949C9.65255 8.13763 9.63776 7.93755 9.5054 7.7725C9.39913 7.63976 9.16869 7.5658 9.02505 7.62146C8.69456 7.74914 8.36018 7.75109 8.03202 7.62925C7.84868 7.56112 7.65716 7.64209 7.54699 7.75615C7.29397 8.01774 7.44228 8.44438 7.75876 8.51094C7.82493 8.52495 7.88916 8.54753 7.95534 8.56038C8.13829 8.59619 8.32164 8.6285 8.48318 8.65847L8.4828 8.65808ZM11.0975 7.60394C11.1026 7.60394 11.108 7.60394 11.1131 7.60394C11.1131 7.48094 11.1104 7.35793 11.1139 7.23531C11.1178 7.10296 11.0971 6.98267 11.0212 6.86745C10.9305 6.72887 10.7869 6.66542 10.6506 6.68099C10.389 6.71135 10.201 6.82541 10.187 7.12359C10.1703 7.47782 10.187 7.83478 10.2092 8.1894C10.2256 8.45644 10.4505 8.55999 10.6576 8.57244C10.8706 8.58529 11.0745 8.40662 11.094 8.18512C11.1111 7.99282 11.0975 7.7978 11.0975 7.60394ZM6.83619 7.62691C6.83619 7.62691 6.83697 7.62691 6.83775 7.62691C6.83775 7.43928 6.84086 7.25166 6.83541 7.06403C6.83385 7.01576 6.81556 6.96165 6.78831 6.92195C6.63221 6.69344 6.50531 6.64673 6.23866 6.71018C6.09502 6.74444 5.93698 6.92311 5.9362 7.06364C5.93425 7.43228 5.93503 7.8013 5.93854 8.16994C5.93892 8.21587 5.95722 8.26414 5.97668 8.30657C6.07205 8.51483 6.33014 8.63122 6.56292 8.53391C6.70501 8.47435 6.83191 8.33421 6.83502 8.17967C6.83852 7.99516 6.8358 7.81104 6.8358 7.62652L6.83619 7.62691Z" fill="#646668"/>
<path id="Vector_2" d="M8.48268 8.65809C8.32113 8.62812 8.13779 8.59581 7.95483 8.56C7.88866 8.54715 7.82443 8.52457 7.75825 8.51056C7.44139 8.44399 7.29346 8.01736 7.54649 7.75577C7.65704 7.64171 7.84856 7.56113 8.03152 7.62887C8.36006 7.75071 8.69444 7.74876 9.02454 7.62108C9.16818 7.5658 9.39824 7.63938 9.5049 7.77212C9.63725 7.93755 9.65204 8.13764 9.55667 8.29451C9.46675 8.44283 9.33713 8.51134 9.17013 8.53703C9.00197 8.56311 8.83653 8.60554 8.66953 8.63785C8.6162 8.64836 8.56092 8.64992 8.48229 8.6577L8.48268 8.65809Z" fill="white"/>
<path id="Vector_3" d="M11.0972 7.60407C11.0972 7.79792 11.1108 7.99295 11.0937 8.18524C11.0742 8.40635 10.8702 8.58541 10.6573 8.57257C10.4502 8.56011 10.2252 8.45656 10.2089 8.18953C10.1871 7.8349 10.1699 7.47794 10.1867 7.12371C10.2007 6.82553 10.3887 6.71147 10.6503 6.68111C10.7865 6.66515 10.9302 6.72899 11.0209 6.86757C11.0968 6.98279 11.1174 7.10308 11.1135 7.23543C11.11 7.35844 11.1127 7.48145 11.1127 7.60407C11.1077 7.60407 11.1022 7.60407 11.0972 7.60407Z" fill="white"/>
<path id="Vector_4" d="M6.83636 7.62687C6.83636 7.81138 6.83909 7.9959 6.83558 8.18002C6.83247 8.33456 6.70557 8.4747 6.56348 8.53426C6.33109 8.63157 6.07262 8.51518 5.97725 8.30692C5.95778 8.2641 5.93949 8.21583 5.9391 8.17029C5.93559 7.80165 5.93443 7.43263 5.93676 7.06399C5.93754 6.92346 6.09558 6.74479 6.23922 6.71053C6.50587 6.64708 6.63277 6.6934 6.78887 6.92229C6.81612 6.96239 6.83442 7.0165 6.83597 7.06438C6.84142 7.25201 6.83831 7.43963 6.83831 7.62726C6.83792 7.62726 6.83753 7.62726 6.83675 7.62726L6.83636 7.62687Z" fill="white"/>
</g>
</g>
<defs>
<clipPath id="clip0_316_2085">
<rect width="16" height="16" fill="white" transform="translate(0.5)"/>
</clipPath>
</defs>
</svg>
