<svg width="35" height="44" viewBox="0 0 35 44" fill="none" xmlns="http://www.w3.org/2000/svg">
<path d="M28.1319 18.6581C28.3324 18.2542 28.4785 17.9563 28.6274 17.6641C31.2455 12.5682 29.8964 6.32657 25.3934 2.69444C20.965 -0.877544 14.328 -0.972071 10.1087 2.85485C6.58253 6.04586 3.40871 9.62357 0 13.1125C1.32052 14.2926 2.70405 15.5902 4.1592 16.8019C4.91828 17.4349 5.2305 18.1081 5.22191 19.1164C5.18181 24.8396 5.17895 30.5628 5.23623 36.2831C5.2792 40.6972 8.55328 43.9198 12.9645 43.9742C15.491 44.0057 18.0175 44.0114 20.5439 43.9742C28.2722 43.8567 34.2761 37.7297 34.2274 30.03C34.1959 25.2263 31.9559 21.5827 28.129 18.6581H28.1319ZM28.3925 35.9394C28.3811 35.9594 28.3725 35.9852 28.3553 35.9995L28.3324 36.031C27.3928 36.9448 26.5134 37.7497 25.5023 38.3627C25.5023 38.3627 25.4851 38.377 25.4794 38.3828C23.7922 39.5715 22.2941 39.8895 20.7416 39.921C18.2151 39.9754 15.6858 39.9783 13.1593 39.9439C10.7159 39.9124 9.24648 38.44 9.23789 36.0024C9.21497 29.9441 9.18633 23.8886 9.26367 17.8302C9.28085 16.4582 8.9543 15.4671 7.83144 14.6707C7.10673 14.158 6.4966 13.4849 5.9237 12.9664C8.30694 10.4944 10.4639 7.92781 12.9588 5.75368C15.7746 3.29884 19.9223 3.50222 22.8641 5.83675C25.7744 8.14551 26.6939 12.0841 25.2044 15.5186C24.7575 16.547 24.2935 16.9136 23.0675 16.6845C17.7052 15.6848 13.2997 17.9706 11.3519 22.5967C8.99154 28.2025 12.5406 34.2952 18.4958 35.4982C19.802 35.7618 21.3116 35.6501 22.592 35.4295C22.9615 35.3665 23.4112 35.2805 23.881 35.1545C26.2327 34.5272 25.3447 30.9838 22.9672 31.5138C22.1623 31.6942 21.2944 31.8747 20.4064 31.9348C19.6101 31.9864 18.2409 31.6656 17.6279 31.3047C15.1186 29.8266 14.2937 28.2712 14.7835 25.2062C15.2046 22.5681 17.5162 20.5658 20.2918 20.5171C24.2906 20.4484 27.2926 22.2301 29.1201 25.7419C30.8789 29.1248 30.5609 32.4848 28.4011 35.9394" fill="white"/>
<path d="M18.2181 12.0556C18.1923 13.5909 16.8775 14.8484 15.3536 14.8026C13.8269 14.7568 12.6009 13.4277 12.6582 11.8837C12.7126 10.4257 14.0245 9.15388 15.4424 9.18539C16.9234 9.2169 18.2439 10.5832 18.2181 12.0556Z" fill="white"/>
</svg>
