<svg width="18" height="18" viewBox="0 0 18 18" fill="none" xmlns="http://www.w3.org/2000/svg">
<path d="M10.8911 0.174363L7.11068 0.165558H7.10886C3.12243 0.165558 0 3.18324 0 7.03571C0 10.6442 2.9037 13.381 6.80354 13.5254V16.8962C6.80354 16.9913 6.84365 17.1481 6.91291 17.2511C7.04233 17.4492 7.26289 17.5567 7.48891 17.5567C7.61468 17.5567 7.74137 17.5232 7.85529 17.4528C8.0959 17.3048 13.7547 13.8072 15.2266 12.6044C16.9601 11.1867 17.9973 9.10855 18 7.04627V7.0313C17.9945 3.18589 14.8739 0.174363 10.8911 0.173483V0.174363ZM14.3426 11.597C13.3091 12.4424 9.91139 14.5953 8.17063 15.6855V12.8791C8.17063 12.5146 7.86532 12.2187 7.48709 12.2187H7.12618C3.79048 12.2187 1.368 10.0384 1.368 7.03571C1.368 3.9238 3.89073 1.4864 7.10977 1.4864L10.8893 1.49521H10.8911C14.1102 1.49521 16.6329 3.93084 16.6347 7.03923C16.632 8.7211 15.7762 10.4241 14.3435 11.597H14.3426Z" fill="white"/>
</svg>
