<svg width="24" height="25" viewBox="0 0 24 25" fill="none" xmlns="http://www.w3.org/2000/svg">
<g clip-path="url(#clip0_138_20634)">
<rect y="0.165558" width="24" height="24" rx="12" fill="#29CC7A"/>
<path d="M9.05078 4.96556C9.78264 5.79632 11.7804 5.5392 11.2266 7.91281" stroke="#FF8C19" stroke-width="2" stroke-linecap="round" stroke-linejoin="round"/>
<path d="M16.1914 34.1016C15.8057 33.0758 15.3497 32.0779 14.8265 31.1148C16.2227 29.1216 17.3221 26.9361 18.0903 24.627L20.5034 27.8709C21.6506 29.394 22.699 30.3434 24.3407 29.2753C25.9825 28.2072 25.666 26.6841 24.222 25.8138C23.5643 25.413 23.0303 24.8378 22.6792 24.1523C19.91 18.6732 18.9407 18.9699 16.6068 19.3655L14.3122 19.7413C9.50568 17.0512 6.91451 15.6468 5.45078 18.0007L4.50134 19.5237C3.81633 20.6041 2.94581 21.5549 1.92992 22.3325C0.347506 23.5984 0.0903652 25.3588 1.25738 26.4467C1.92992 27.0797 2.93871 27.5544 3.80903 27.8709C3.01783 30.9764 3.41341 32.183 3.55187 33.5082C2.20683 36.2972 3.01783 36.9104 4.79804 36.9104C6.57825 36.9104 12.7496 36.1983 16.1914 34.1016Z" fill="#459FF7"/>
<path d="M10.6724 19.1874C12.2548 21.4423 11.4833 22.7676 12.413 24.0731C13.3427 25.3786 14.7471 25.6555 15.4591 23.5786C16.1712 21.5017 15.8152 20.4534 15.2416 19.3457" stroke="white" stroke-miterlimit="10" stroke-linecap="round"/>
<path d="M10.0795 25.1214C9.36738 24.706 8.02233 24.6269 6.97399 26.15C5.92564 27.6731 6.83553 29.295 6.83553 29.295" stroke="#8CD9FF" stroke-width="2" stroke-linecap="round" stroke-linejoin="round"/>
<path d="M10.6331 26.4665C10.732 25.6555 11.2067 24.8643 5.45068 23.7764" stroke="black" stroke-width="2" stroke-linecap="round" stroke-linejoin="round"/>
<path d="M16.7647 15.4886H17.2592C17.3011 15.4991 17.3455 15.4925 17.3826 15.4702C17.4197 15.4479 17.4465 15.4119 17.457 15.3699C17.4675 15.3279 17.4608 15.2835 17.4386 15.2464C17.4163 15.2093 17.3803 15.1826 17.3383 15.1721C16.4145 14.7056 15.5781 14.0833 14.8658 13.3326L12.0966 10.5831C11.8206 10.2956 11.6649 9.91349 11.6614 9.515V9.33698C11.6614 7.97216 11.4636 7.53699 10.9691 7.02271C10.6421 6.66119 10.2212 6.39762 9.75313 6.26141C9.28511 6.12519 8.78845 6.12169 8.31856 6.25129C7.27021 6.52821 6.93395 6.90403 6.85483 7.12161C6.77571 7.33919 6.79549 7.57655 7.09219 7.39853C6.75593 7.95238 6.71637 8.60512 6.71637 9.33698C6.71637 10.0688 6.20209 10.6425 5.50978 11.0381C5.4849 11.0517 5.4648 11.0727 5.45224 11.0982C5.4397 11.1237 5.43527 11.1524 5.4396 11.1805C5.44392 11.2086 5.45675 11.2346 5.4764 11.2551C5.49602 11.2756 5.52149 11.2897 5.54934 11.2952C5.74714 11.3546 6.08341 11.3743 6.59769 11.1765C5.96473 12.2051 5.72737 12.482 5.96473 12.5018C6.20209 12.5216 6.57791 12.4029 7.01307 11.9084C7.24155 12.502 7.59194 13.041 8.04164 13.4908C9.50536 15.093 10.2174 16.1413 10.5537 17.071C9.12954 18.4358 9.1691 18.2578 10.613 18.2578L9.42624 19.4644C9.01086 19.9193 8.91196 20.6512 10.3955 20.6512C10.3559 21.1457 10.7911 21.5413 11.4636 21.1852C11.4636 21.1852 11.1471 21.6995 11.5229 22.1149C11.8988 22.5303 13.5009 22.2534 14.1339 21.5215C14.4092 21.6428 14.7183 21.6637 15.0075 21.5806C15.2966 21.4974 15.5475 21.3156 15.7163 21.0666C16.468 21.383 17.1405 21.0072 17.4767 20.1963C17.813 19.3853 18.1493 17.0314 16.7647 15.4886Z" fill="#FFD736"/>
<path d="M11.7409 9.49525H10.9102V9.83546H11.7409V9.49525Z" fill="black"/>
<path d="M12.5603 9.70276C12.6549 9.26497 12.5066 8.86143 12.229 8.8014C11.9514 8.74139 11.6496 9.0476 11.5549 9.4854C11.4603 9.92317 11.6086 10.3267 11.8862 10.3867C12.1638 10.4468 12.4656 10.1405 12.5603 9.70276Z" fill="black"/>
<path d="M12.3738 8.86222L11.5232 9.71277C11.5114 9.92851 11.5821 10.1407 11.7211 10.3062L12.5914 9.43585C12.5988 9.33018 12.5832 9.22418 12.5456 9.12514C12.508 9.0261 12.4494 8.9364 12.3738 8.86222Z" fill="#3442D9"/>
<path d="M11.6025 12.0863C13.5608 11.7105 14.9256 12.6006 15.6377 12.205C15.9739 12.027 16.1717 11.4138 15.5981 10.9391C15.9335 10.7001 16.1941 10.3709 16.3498 9.98966C16.5278 9.43582 16.0926 8.88197 15.0047 9.29736C13.9168 9.71274 12.7893 10.2072 11.2465 9.9501C10.574 9.8512 9.90146 10.405 10.3168 11.2358C10.7322 12.0666 11.108 12.1852 11.6025 12.0863Z" fill="#EB459F"/>
<path d="M11.106 9.70491C11.2069 9.23385 10.9676 8.78318 10.5715 8.6983C10.1754 8.61341 9.77248 8.92647 9.67154 9.39753C9.57058 9.86857 9.80988 10.3192 10.206 10.4041C10.6021 10.489 11.005 10.176 11.106 9.70491Z" fill="black"/>
<path d="M10.5144 7.43813C10.0396 5.69748 8.35834 5.93484 7.42867 6.03374C6.49901 6.13264 5.74737 5.73704 5.52979 5.42056" stroke="#FF8C19" stroke-width="2" stroke-linecap="round" stroke-linejoin="round"/>
<path d="M9.64404 9.65346C9.6441 9.80409 9.67791 9.95278 9.74294 10.0886L10.91 8.94138C10.8163 8.83803 10.6912 8.76848 10.5539 8.74358L9.64404 9.65346Z" fill="#3442D9"/>
<path d="M14.5894 11.1369C14.9633 10.949 15.2781 10.6616 15.4992 10.3062" stroke="black" stroke-width="0.5" stroke-linecap="round" stroke-linejoin="round"/>
<path d="M15.0044 10.9193C15.1324 10.9642 15.2384 11.0562 15.3011 11.1764" stroke="black" stroke-width="0.5" stroke-linecap="round" stroke-linejoin="round"/>
<path d="M6.7168 24.0336C7.09262 23.4995 7.46844 22.9061 7.74536 22.5105C7.76629 22.4868 7.79386 22.4698 7.82454 22.4619C7.8552 22.4539 7.88754 22.4553 7.91737 22.466C7.9472 22.4767 7.97315 22.4961 7.99184 22.5216C8.01055 22.5471 8.02116 22.5778 8.02228 22.6094C7.96079 23.168 7.86833 23.7226 7.74536 24.2709L6.7168 24.0336Z" fill="black"/>
<path d="M18.3673 25.0028L18.4069 24.9236C18.6047 24.3896 18.8816 23.4995 19.02 22.9456C19.0291 22.9197 19.0327 22.8922 19.0305 22.8647C19.0283 22.8374 19.0204 22.8107 19.0074 22.7866C18.9945 22.7623 18.9765 22.7411 18.9548 22.7243C18.9332 22.7075 18.9083 22.6952 18.8816 22.6885C18.8321 22.6808 18.7815 22.6903 18.7382 22.7156C18.695 22.7407 18.6618 22.7801 18.6442 22.8269C18.5058 23.3214 18.2684 24.0929 18.0903 24.6269L18.3673 25.0028Z" fill="black"/>
<path d="M12.4527 28.6027L19.3758 23.1434C19.4549 23.1039 19.5538 23.1039 19.5934 23.183C19.6052 23.1972 19.6143 23.2136 19.6199 23.2312C19.6252 23.249 19.6272 23.2676 19.6252 23.286C19.6234 23.3046 19.6179 23.3224 19.609 23.3386C19.6001 23.3549 19.588 23.3693 19.5736 23.3808L12.8285 29.0577C12.7994 29.0873 12.7644 29.1107 12.7257 29.1259C12.6871 29.1413 12.6456 29.1483 12.604 29.1465C12.5625 29.1449 12.5217 29.1344 12.4845 29.1158C12.4472 29.0972 12.4143 29.0711 12.3878 29.0391C12.3613 29.007 12.3418 28.9696 12.3307 28.9297C12.3195 28.8895 12.3169 28.8476 12.3231 28.8065C12.3292 28.7653 12.3439 28.726 12.3662 28.6907C12.3886 28.6557 12.418 28.6257 12.4527 28.6027Z" fill="#4553EB"/>
<path d="M11.5231 18.2183C11.0484 19.2073 12.2352 19.2073 12.5912 18.6732C12.611 19.4644 13.3231 19.9589 13.9363 19.3062" stroke="#FFB914" stroke-width="2" stroke-linecap="round" stroke-linejoin="round"/>
<path d="M15.8549 15.2709C15.6066 15.0931 15.3333 14.9531 15.0439 14.8556" stroke="#FFB914" stroke-width="2" stroke-linecap="round" stroke-linejoin="round"/>
</g>
<defs>
<clipPath id="clip0_138_20634">
<rect y="0.165558" width="24" height="24" rx="12" fill="white"/>
</clipPath>
</defs>
</svg>
