<svg width="459" height="516" viewBox="0 0 459 516" fill="none" xmlns="http://www.w3.org/2000/svg">
<line x1="4.06958" y1="511.323" x2="275.46" y2="511.323" stroke="#334A70" stroke-width="8" stroke-linecap="round"/>
<line x1="4.06958" y1="511.323" x2="275.46" y2="511.323" stroke="black" stroke-opacity="0.2" stroke-width="8" stroke-linecap="round"/>
<path d="M86.8878 423.654C72.3246 429.926 62.6158 445.888 58.6441 471.543C54.6725 497.197 68.0432 510.333 87.0196 510.333H125.795L115.132 445.318C115.132 445.318 106.747 421.374 86.8878 423.654Z" fill="#334A70"/>
<path d="M86.8878 423.654C72.3246 429.926 62.6158 445.888 58.6441 471.543C54.6725 497.197 68.0432 510.333 87.0196 510.333H125.795L115.132 445.318C115.132 445.318 106.747 421.374 86.8878 423.654Z" fill="black" fill-opacity="0.2"/>
<path d="M86.8878 423.654C72.3246 429.926 62.6158 445.888 58.6441 471.543C54.6725 497.197 68.0432 510.333 87.0196 510.333H125.795L115.132 445.318C115.132 445.318 106.747 421.374 86.8878 423.654Z" stroke="#334A70" stroke-width="7" stroke-linejoin="round"/>
<path d="M86.8878 423.654C72.3246 429.926 62.6158 445.888 58.6441 471.543C54.6725 497.197 68.0432 510.333 87.0196 510.333H125.795L115.132 445.318C115.132 445.318 106.747 421.374 86.8878 423.654Z" stroke="black" stroke-opacity="0.2" stroke-width="7" stroke-linejoin="round"/>
<path d="M146.45 423.654C129.531 429.926 118.252 445.888 113.638 471.543C109.024 497.197 124.557 510.333 146.603 510.333H191.651L179.263 445.318C179.263 445.318 169.522 421.374 146.45 423.654Z" fill="#334A70"/>
<path d="M146.45 423.654C129.531 429.926 118.252 445.888 113.638 471.543C109.024 497.197 124.557 510.333 146.603 510.333H191.651L179.263 445.318C179.263 445.318 169.522 421.374 146.45 423.654Z" fill="black" fill-opacity="0.2"/>
<path d="M146.45 423.654C129.531 429.926 118.252 445.888 113.638 471.543C109.024 497.197 124.557 510.333 146.603 510.333H191.651L179.263 445.318C179.263 445.318 169.522 421.374 146.45 423.654Z" stroke="#334A70" stroke-width="7" stroke-linejoin="round"/>
<path d="M146.45 423.654C129.531 429.926 118.252 445.888 113.638 471.543C109.024 497.197 124.557 510.333 146.603 510.333H191.651L179.263 445.318C179.263 445.318 169.522 421.374 146.45 423.654Z" stroke="black" stroke-opacity="0.2" stroke-width="7" stroke-linejoin="round"/>
<g filter="url(#filter0_i_226_29698)">
<path d="M73.3216 410.656C56.7675 414.486 45.9695 452.244 45.9694 478.968C45.9693 505.693 64.5795 503.291 84.8563 503.291C101.343 503.291 104.633 488.564 98.9569 472.746L109.411 484.059L112.823 440.622C112.823 440.622 94.5418 408.235 73.3216 410.656Z" fill="white"/>
</g>
<path d="M78.7024 445.03C88.2918 452.449 95.3924 462.813 98.9569 472.746M98.9569 472.746C104.633 488.564 101.343 503.291 84.8563 503.291C64.5795 503.291 45.9693 505.693 45.9694 478.968C45.9695 452.244 56.7675 414.486 73.3216 410.656C94.5418 408.235 112.823 440.622 112.823 440.622L109.411 484.059L98.9569 472.746Z" stroke="#334A70" stroke-width="8" stroke-linecap="round" stroke-linejoin="round"/>
<path d="M78.7024 445.03C88.2918 452.449 95.3924 462.813 98.9569 472.746M98.9569 472.746C104.633 488.564 101.343 503.291 84.8563 503.291C64.5795 503.291 45.9693 505.693 45.9694 478.968C45.9695 452.244 56.7675 414.486 73.3216 410.656C94.5418 408.235 112.823 440.622 112.823 440.622L109.411 484.059L98.9569 472.746Z" stroke="black" stroke-opacity="0.2" stroke-width="8" stroke-linecap="round" stroke-linejoin="round"/>
<path d="M144.667 420.659C127.644 426.871 116.296 442.684 111.653 468.098C107.011 493.511 122.486 509.335 144.667 509.335C174.028 509.335 154.659 476.226 144.667 462.672L173.039 500.289L177.682 442.119C177.682 442.119 167.881 418.4 144.667 420.659Z" fill="white"/>
<path d="M144.667 420.659C127.644 426.871 116.296 442.684 111.653 468.098C107.011 493.511 122.486 509.335 144.667 509.335C174.028 509.335 154.659 476.226 144.667 462.672L173.039 500.289L177.682 442.119C177.682 442.119 167.881 418.4 144.667 420.659Z" stroke="#334A70" stroke-width="8" stroke-linejoin="round"/>
<path d="M144.667 420.659C127.644 426.871 116.296 442.684 111.653 468.098C107.011 493.511 122.486 509.335 144.667 509.335C174.028 509.335 154.659 476.226 144.667 462.672L173.039 500.289L177.682 442.119C177.682 442.119 167.881 418.4 144.667 420.659Z" stroke="black" stroke-opacity="0.2" stroke-width="8" stroke-linejoin="round"/>
<g filter="url(#filter1_i_226_29698)">
<path fill-rule="evenodd" clip-rule="evenodd" d="M120.356 409.13L118.964 489.379C118.848 496.076 121.647 501.976 127.454 503.731C132.487 505.252 138.884 506.045 144.314 503.112C148.867 500.653 150.302 494.913 150.383 490.049L151.705 410.276L120.356 409.13Z" fill="#707EFF"/>
<path d="M148.899 379.375L124.081 384.652C122.241 385.043 120.726 386.846 120.696 388.678L120.356 409.13L151.705 410.276L152.174 381.986C152.205 380.153 150.738 378.984 148.899 379.375Z" fill="#334A70"/>
<path d="M148.899 379.375L124.081 384.652C122.241 385.043 120.726 386.846 120.696 388.678L120.356 409.13L151.705 410.276L152.174 381.986C152.205 380.153 150.738 378.984 148.899 379.375Z" fill="black" fill-opacity="0.2"/>
</g>
<path d="M148.965 375.376L124.147 380.653C120.242 381.483 116.852 385.373 116.783 389.51L116.444 409.96L116.444 409.962L115.051 490.207C114.917 497.959 118.165 505.42 125.642 507.68C130.794 509.237 138.432 510.454 145.455 506.661C149.106 504.689 151.339 501.442 152.597 498.288C153.827 495.208 154.25 491.961 154.295 489.217L155.618 409.444L156.087 381.154C156.155 377.017 152.871 374.546 148.965 375.376Z" stroke="#334A70" stroke-width="8" stroke-linejoin="round"/>
<path d="M148.965 375.376L124.147 380.653C120.242 381.483 116.852 385.373 116.783 389.51L116.444 409.96L116.444 409.962L115.051 490.207C114.917 497.959 118.165 505.42 125.642 507.68C130.794 509.237 138.432 510.454 145.455 506.661C149.106 504.689 151.339 501.442 152.597 498.288C153.827 495.208 154.25 491.961 154.295 489.217L155.618 409.444L156.087 381.154C156.155 377.017 152.871 374.546 148.965 375.376Z" stroke="black" stroke-opacity="0.2" stroke-width="8" stroke-linejoin="round"/>
<g filter="url(#filter2_i_226_29698)">
<path fill-rule="evenodd" clip-rule="evenodd" d="M174.554 409.23L173.203 487.07C173.06 495.289 176.459 502.673 183.769 504.402C187.876 505.374 192.599 505.679 196.889 503.969C202.651 501.673 204.509 494.413 204.608 488.443L205.903 410.375L174.554 409.23Z" fill="#707EFF"/>
<path d="M203.096 379.475L178.278 384.752C176.439 385.143 174.923 386.945 174.893 388.778L174.554 409.23L205.903 410.375L206.372 382.085C206.402 380.253 204.936 379.084 203.096 379.475Z" fill="#334A70"/>
<path d="M203.096 379.475L178.278 384.752C176.439 385.143 174.923 386.945 174.893 388.778L174.554 409.23L205.903 410.375L206.372 382.085C206.402 380.253 204.936 379.084 203.096 379.475Z" fill="black" fill-opacity="0.2"/>
</g>
<path d="M203.163 375.476L178.344 380.752C174.439 381.582 171.049 385.473 170.98 389.61L170.641 410.06L170.641 410.061L169.291 487.898C169.131 497.09 172.937 506.222 182.139 508.4C186.491 509.429 192.085 509.923 197.528 507.754C202.043 505.954 204.844 502.199 206.408 498.477C207.931 494.855 208.466 490.914 208.521 487.611L209.815 409.543L210.284 381.253C210.353 377.116 207.068 374.645 203.163 375.476Z" stroke="#334A70" stroke-width="8" stroke-linejoin="round"/>
<path d="M203.163 375.476L178.344 380.752C174.439 381.582 171.049 385.473 170.98 389.61L170.641 410.06L170.641 410.061L169.291 487.898C169.131 497.09 172.937 506.222 182.139 508.4C186.491 509.429 192.085 509.923 197.528 507.754C202.043 505.954 204.844 502.199 206.408 498.477C207.931 494.855 208.466 490.914 208.521 487.611L209.815 409.543L210.284 381.253C210.353 377.116 207.068 374.645 203.163 375.476Z" stroke="black" stroke-opacity="0.2" stroke-width="8" stroke-linejoin="round"/>
<path d="M371.441 244.368C421.351 227.868 457.361 180.886 457.361 125.503C457.361 56.368 401.248 0.323059 332.029 0.323059C262.81 0.323059 206.697 56.368 206.697 125.503C206.697 185.43 248.859 235.522 305.172 247.802V280.993C305.172 285.034 309.717 287.406 313.032 285.095L371.441 244.368Z" fill="#FABF48"/>
<path d="M323.232 46.6279C319.264 46.6279 316.089 49.9231 316.237 53.8886L319.758 148.373C319.898 152.135 322.989 155.113 326.753 155.113H336.502C340.133 155.113 343.161 152.336 343.475 148.719L351.692 54.2343C352.047 50.1444 348.823 46.6279 344.718 46.6279H323.232ZM331.33 169.673C325.4 169.673 320.548 171.561 316.775 175.336C312.463 179.111 310.576 183.964 310.576 189.896C310.576 195.828 312.463 200.682 316.775 204.457C320.548 208.232 325.4 210.389 331.33 210.389C337.259 210.389 342.111 208.501 346.423 204.726C350.197 200.951 352.353 195.828 352.353 189.896C352.353 183.964 350.197 179.111 346.423 175.336C342.38 171.561 337.259 169.673 331.33 169.673Z" fill="#334A70"/>
<path d="M323.232 46.6279C319.264 46.6279 316.089 49.9231 316.237 53.8886L319.758 148.373C319.898 152.135 322.989 155.113 326.753 155.113H336.502C340.133 155.113 343.161 152.336 343.475 148.719L351.692 54.2343C352.047 50.1444 348.823 46.6279 344.718 46.6279H323.232ZM331.33 169.673C325.4 169.673 320.548 171.561 316.775 175.336C312.463 179.111 310.576 183.964 310.576 189.896C310.576 195.828 312.463 200.682 316.775 204.457C320.548 208.232 325.4 210.389 331.33 210.389C337.259 210.389 342.111 208.501 346.423 204.726C350.197 200.951 352.353 195.828 352.353 189.896C352.353 183.964 350.197 179.111 346.423 175.336C342.38 171.561 337.259 169.673 331.33 169.673Z" fill="black" fill-opacity="0.2"/>
<path d="M237.274 187.914C237.211 187.901 237.147 187.889 237.083 187.879L216.201 184.55C215.412 184.389 214.528 184.253 213.576 184.107C208.356 183.304 201.096 182.189 196.454 174.88C193.503 170.235 194.053 165.848 195.469 160.062C195.616 159.462 195.775 158.841 195.94 158.201C197.276 152.992 198.948 146.477 196.913 139.596C195.448 134.642 191.374 131.842 187.011 130.343C182.662 128.848 177.391 128.391 172.142 128.47C161.598 128.628 149.907 130.977 142.842 133.075C128.976 137.193 89.8906 153.178 75.3362 161.094C67.7327 165.229 57.396 173.281 48.2405 182.987C39.1262 192.649 30.7344 204.421 27.6225 216.111C21.7792 238.064 21.2654 251.91 22.7388 267.657C24.1809 283.069 27.9182 308.994 30.9021 323.942C34.0572 339.747 45.7283 359.23 60.6305 373.777C79.1868 391.891 97.245 406.292 123.699 400.645L217.892 387.776C217.899 387.775 217.905 387.774 217.911 387.774C232.283 385.938 243.326 378.648 252.749 368.363C257.649 363.016 262.39 354.829 266.042 347.023C269.684 339.239 272.513 331.255 273.298 326.155C273.999 321.6 276.147 307.248 278.122 292.591C280.075 278.093 281.924 262.844 281.924 256.778C281.924 245.221 281.241 230.943 275.397 217.459C271.475 208.41 266.864 201.908 260.543 197.198C254.273 192.526 246.67 189.882 237.274 187.914Z" stroke="#334A70" stroke-width="8" stroke-linecap="round" stroke-linejoin="round"/>
<path d="M237.274 187.914C237.211 187.901 237.147 187.889 237.083 187.879L216.201 184.55C215.412 184.389 214.528 184.253 213.576 184.107C208.356 183.304 201.096 182.189 196.454 174.88C193.503 170.235 194.053 165.848 195.469 160.062C195.616 159.462 195.775 158.841 195.94 158.201C197.276 152.992 198.948 146.477 196.913 139.596C195.448 134.642 191.374 131.842 187.011 130.343C182.662 128.848 177.391 128.391 172.142 128.47C161.598 128.628 149.907 130.977 142.842 133.075C128.976 137.193 89.8906 153.178 75.3362 161.094C67.7327 165.229 57.396 173.281 48.2405 182.987C39.1262 192.649 30.7344 204.421 27.6225 216.111C21.7792 238.064 21.2654 251.91 22.7388 267.657C24.1809 283.069 27.9182 308.994 30.9021 323.942C34.0572 339.747 45.7283 359.23 60.6305 373.777C79.1868 391.891 97.245 406.292 123.699 400.645L217.892 387.776C217.899 387.775 217.905 387.774 217.911 387.774C232.283 385.938 243.326 378.648 252.749 368.363C257.649 363.016 262.39 354.829 266.042 347.023C269.684 339.239 272.513 331.255 273.298 326.155C273.999 321.6 276.147 307.248 278.122 292.591C280.075 278.093 281.924 262.844 281.924 256.778C281.924 245.221 281.241 230.943 275.397 217.459C271.475 208.41 266.864 201.908 260.543 197.198C254.273 192.526 246.67 189.882 237.274 187.914Z" stroke="black" stroke-opacity="0.2" stroke-width="8" stroke-linecap="round" stroke-linejoin="round"/>
<mask id="mask0_226_29698" style="mask-type:alpha" maskUnits="userSpaceOnUse" x="26" y="132" width="253" height="266">
<path d="M63.4706 370.818C48.9527 356.669 37.7944 337.879 34.8355 323.081C31.8765 308.283 28.1539 282.505 26.7222 267.229C25.2905 251.953 25.7673 238.587 31.4946 217.106C37.222 195.624 62.9927 172.369 77.3103 164.595C91.6278 156.82 130.501 140.948 144.125 136.908C157.75 132.868 189.464 127.838 193.282 140.727C197.1 153.616 185.477 164.739 193.282 177.007C199.964 187.509 211.638 187.611 215.713 188.463L236.712 191.805C255.049 195.64 264.539 201.762 272.029 219.015C277.535 231.697 278.234 245.27 278.234 256.727C278.234 268.184 271.041 316.398 269.643 325.468C268.245 334.538 259.075 355.76 250.075 365.566C241.076 375.372 230.824 382.027 217.622 383.706L123.126 396.595C98.7871 401.846 82.0834 388.958 63.4706 370.818Z" fill="#D9D9D9"/>
</mask>
<g mask="url(#mask0_226_29698)">
<ellipse cx="159.794" cy="154.2" rx="159.794" ry="154.2" transform="matrix(-1 0 0 1 306.221 119.723)" fill="#EEEFFC"/>
<path d="M136.49 407.575L98.4545 399.789C74.1008 394.505 66.9927 388.3 55.0626 376.524C45.1587 366.749 40.0894 351.012 34.3028 335.573C28.5162 320.134 22.2891 269.266 23.3814 248.134C24.4737 227.003 33.0134 209.119 42.4716 198.966C54.7091 185.829 75.7594 174.795 89.2422 168.892C102.725 162.989 125.991 155.525 138.876 153.616C151.762 151.706 172.241 149.317 179.92 156.003C185.318 160.703 184.39 170.739 186.47 178.427C188.55 186.116 199.354 190.839 208.54 191.659C217.727 192.479 232.803 194.482 232.803 194.482C253.912 197.547 265.498 205.673 270.12 212.809C274.743 219.946 280.8 244.022 280.62 260.069C280.44 276.115 276.802 297.781 276.802 297.781C275.636 310.289 262.081 350.15 255.908 361.217C250.312 371.25 221.441 399.789 221.441 399.789C194.009 431.042 169.963 413.041 136.49 407.575Z" fill="#C9CEF4"/>
<path d="M43.3918 314.647C48.6658 333.666 73.1267 359.779 93.6795 375.822C106.011 385.448 117.114 386.685 136.167 383.78C200.616 373.952 228.004 364.174 239.457 336.14C250.911 308.106 271.185 257.994 259.143 246.225C249.955 237.244 232.004 231.613 212.455 228.077C180.324 222.264 147.354 224.601 115.109 229.743C100.491 232.073 87.714 234.102 62.0387 236.678C51.7349 237.711 38.1801 239.993 36.7444 255.295C35.3086 270.597 38.1177 295.628 43.3918 314.647Z" fill="#5260DD"/>
<g filter="url(#filter3_i_226_29698)">
<path d="M43.7686 320.221C48.9333 344.721 72.9785 364.263 87.3178 374.801C101.657 385.339 116.583 385.55 136.49 383.706C205.184 377.346 233.809 377.933 248.531 348.631C263.253 319.33 272.301 255.622 259.621 243.838C232.04 218.207 146.674 253.406 126.641 256.619C106.609 259.833 80.5312 268.824 59.3537 252.273C38.1762 235.723 36.2672 247.029 36.2672 267.706C36.2672 288.384 38.6038 295.721 43.7686 320.221Z" fill="#707EFF"/>
</g>
</g>
<path d="M152.229 265.123L172.751 276.102L155.57 293.765M213.576 259.088L201.167 273.409L217.285 282.281" stroke="#334A70" stroke-width="8" stroke-linecap="round" stroke-linejoin="round"/>
<path d="M152.229 265.123L172.751 276.102L155.57 293.765M213.576 259.088L201.167 273.409L217.285 282.281" stroke="black" stroke-opacity="0.2" stroke-width="8" stroke-linecap="round" stroke-linejoin="round"/>
<g filter="url(#filter4_i_226_29698)">
<path d="M197.664 315.333C197.664 287.937 229.354 287.155 229.354 311.419C229.354 334.328 237.447 340.271 250.282 341.591C256.742 342.255 270.327 341.964 276.842 329.188C286.362 334.645 284.989 351.017 276.842 360.443C272.416 365.564 259.659 371.381 247.275 371.854C217.76 372.98 197.664 348.44 197.664 315.333Z" fill="#707EFF"/>
</g>
<path d="M197.664 315.333C197.664 287.937 229.354 287.155 229.354 311.419C229.354 334.328 237.447 340.271 250.282 341.591C256.742 342.255 270.327 341.964 276.842 329.188C286.362 334.645 284.989 351.017 276.842 360.443C272.416 365.564 259.659 371.381 247.275 371.854C217.76 372.98 197.664 348.44 197.664 315.333Z" stroke="#334A70" stroke-width="8" stroke-linecap="round" stroke-linejoin="round"/>
<path d="M197.664 315.333C197.664 287.937 229.354 287.155 229.354 311.419C229.354 334.328 237.447 340.271 250.282 341.591C256.742 342.255 270.327 341.964 276.842 329.188C286.362 334.645 284.989 351.017 276.842 360.443C272.416 365.564 259.659 371.381 247.275 371.854C217.76 372.98 197.664 348.44 197.664 315.333Z" stroke="black" stroke-opacity="0.2" stroke-width="8" stroke-linecap="round" stroke-linejoin="round"/>
<path d="M118.345 226.086C106.527 245.548 90.8899 291.816 117.82 290.051C145.524 288.234 130.342 243.986 118.345 226.086Z" fill="#EEEFFC"/>
<path d="M118.345 226.086C106.527 245.548 90.8899 291.816 117.82 290.051C145.524 288.234 130.342 243.986 118.345 226.086Z" stroke="#334A70" stroke-width="8" stroke-linecap="round" stroke-linejoin="round"/>
<path d="M118.345 226.086C106.527 245.548 90.8899 291.816 117.82 290.051C145.524 288.234 130.342 243.986 118.345 226.086Z" stroke="black" stroke-opacity="0.2" stroke-width="8" stroke-linecap="round" stroke-linejoin="round"/>
<g filter="url(#filter5_i_226_29698)">
<path d="M118.062 356.08C88.9089 353.571 76.5215 323.818 76.5215 312.151C69.4845 307.674 48.0569 301.048 48.0569 328.41C48.0569 328.41 61.0317 384.382 111.287 387.702C186.591 392.677 202.181 354.869 202.181 319.838C202.181 290.85 169.007 292.446 169.007 318.121C169.007 343.796 147.215 358.589 118.062 356.08Z" fill="#707EFF"/>
</g>
<path d="M118.062 356.08C88.9089 353.571 76.5215 323.818 76.5215 312.151C69.4845 307.674 48.0569 301.048 48.0569 328.41C48.0569 328.41 61.0317 384.382 111.287 387.702C186.591 392.677 202.181 354.869 202.181 319.838C202.181 290.85 169.007 292.446 169.007 318.121C169.007 343.796 147.215 358.589 118.062 356.08Z" stroke="#334A70" stroke-width="8" stroke-linecap="round" stroke-linejoin="round"/>
<path d="M118.062 356.08C88.9089 353.571 76.5215 323.818 76.5215 312.151C69.4845 307.674 48.0569 301.048 48.0569 328.41C48.0569 328.41 61.0317 384.382 111.287 387.702C186.591 392.677 202.181 354.869 202.181 319.838C202.181 290.85 169.007 292.446 169.007 318.121C169.007 343.796 147.215 358.589 118.062 356.08Z" stroke="black" stroke-opacity="0.2" stroke-width="8" stroke-linecap="round" stroke-linejoin="round"/>
<path d="M273.157 461.73L308.606 420.507V453.824H340.116L324.361 472.459L347.994 484.317L308.606 506.34" stroke="#334A70" stroke-width="8" stroke-linecap="round" stroke-linejoin="round"/>
<path d="M273.157 461.73L308.606 420.507V453.824H340.116L324.361 472.459L347.994 484.317L308.606 506.34" stroke="black" stroke-opacity="0.2" stroke-width="8" stroke-linecap="round" stroke-linejoin="round"/>
<path d="M166.849 147.438C161.436 150.221 149.866 159.436 146.887 174.031" stroke="#334A70" stroke-width="8" stroke-linecap="round" stroke-linejoin="round"/>
<path d="M166.849 147.438C161.436 150.221 149.866 159.436 146.887 174.031" stroke="black" stroke-opacity="0.2" stroke-width="8" stroke-linecap="round" stroke-linejoin="round"/>
<defs>
<filter id="filter0_i_226_29698" x="38.9694" y="403.525" width="77.854" height="103.821" filterUnits="userSpaceOnUse" color-interpolation-filters="sRGB">
<feFlood flood-opacity="0" result="BackgroundImageFix"/>
<feBlend mode="normal" in="SourceGraphic" in2="BackgroundImageFix" result="shape"/>
<feColorMatrix in="SourceAlpha" type="matrix" values="0 0 0 0 0 0 0 0 0 0 0 0 0 0 0 0 0 0 127 0" result="hardAlpha"/>
<feOffset dx="-5" dy="-17"/>
<feGaussianBlur stdDeviation="1.5"/>
<feComposite in2="hardAlpha" operator="arithmetic" k2="-1" k3="1"/>
<feColorMatrix type="matrix" values="0 0 0 0 0.141667 0 0 0 0 0.170204 0 0 0 0 0.425 0 0 0 0.34 0"/>
<feBlend mode="darken" in2="shape" result="effect1_innerShadow_226_29698"/>
</filter>
<filter id="filter1_i_226_29698" x="108.134" y="368.132" width="51.8668" height="145.131" filterUnits="userSpaceOnUse" color-interpolation-filters="sRGB">
<feFlood flood-opacity="0" result="BackgroundImageFix"/>
<feBlend mode="normal" in="SourceGraphic" in2="BackgroundImageFix" result="shape"/>
<feColorMatrix in="SourceAlpha" type="matrix" values="0 0 0 0 0 0 0 0 0 0 0 0 0 0 0 0 0 0 127 0" result="hardAlpha"/>
<feOffset dx="-5" dy="-17"/>
<feGaussianBlur stdDeviation="1.5"/>
<feComposite in2="hardAlpha" operator="arithmetic" k2="-1" k3="1"/>
<feColorMatrix type="matrix" values="0 0 0 0 0.321569 0 0 0 0 0.376471 0 0 0 0 0.866667 0 0 0 0.6 0"/>
<feBlend mode="normal" in2="shape" result="effect1_innerShadow_226_29698"/>
</filter>
<filter id="filter2_i_226_29698" x="162.373" y="368.231" width="51.8257" height="145.131" filterUnits="userSpaceOnUse" color-interpolation-filters="sRGB">
<feFlood flood-opacity="0" result="BackgroundImageFix"/>
<feBlend mode="normal" in="SourceGraphic" in2="BackgroundImageFix" result="shape"/>
<feColorMatrix in="SourceAlpha" type="matrix" values="0 0 0 0 0 0 0 0 0 0 0 0 0 0 0 0 0 0 127 0" result="hardAlpha"/>
<feOffset dx="-5" dy="-17"/>
<feGaussianBlur stdDeviation="1.5"/>
<feComposite in2="hardAlpha" operator="arithmetic" k2="-1" k3="1"/>
<feColorMatrix type="matrix" values="0 0 0 0 0.321569 0 0 0 0 0.376471 0 0 0 0 0.866667 0 0 0 0.6 0"/>
<feBlend mode="normal" in2="shape" result="effect1_innerShadow_226_29698"/>
</filter>
<filter id="filter3_i_226_29698" x="36.2672" y="231.549" width="232.386" height="153.041" filterUnits="userSpaceOnUse" color-interpolation-filters="sRGB">
<feFlood flood-opacity="0" result="BackgroundImageFix"/>
<feBlend mode="normal" in="SourceGraphic" in2="BackgroundImageFix" result="shape"/>
<feColorMatrix in="SourceAlpha" type="matrix" values="0 0 0 0 0 0 0 0 0 0 0 0 0 0 0 0 0 0 127 0" result="hardAlpha"/>
<feOffset dx="7" dy="-10"/>
<feGaussianBlur stdDeviation="1.5"/>
<feComposite in2="hardAlpha" operator="arithmetic" k2="-1" k3="1"/>
<feColorMatrix type="matrix" values="0 0 0 0 0.321569 0 0 0 0 0.376471 0 0 0 0 0.866667 0 0 0 0.6 0"/>
<feBlend mode="normal" in2="shape" result="effect1_innerShadow_226_29698"/>
</filter>
<filter id="filter4_i_226_29698" x="190.664" y="286.964" width="96.8123" height="88.9276" filterUnits="userSpaceOnUse" color-interpolation-filters="sRGB">
<feFlood flood-opacity="0" result="BackgroundImageFix"/>
<feBlend mode="normal" in="SourceGraphic" in2="BackgroundImageFix" result="shape"/>
<feColorMatrix in="SourceAlpha" type="matrix" values="0 0 0 0 0 0 0 0 0 0 0 0 0 0 0 0 0 0 127 0" result="hardAlpha"/>
<feOffset dx="-5" dy="-17"/>
<feGaussianBlur stdDeviation="1.5"/>
<feComposite in2="hardAlpha" operator="arithmetic" k2="-1" k3="1"/>
<feColorMatrix type="matrix" values="0 0 0 0 0.141667 0 0 0 0 0.170204 0 0 0 0 0.425 0 0 0 0.34 0"/>
<feBlend mode="darken" in2="shape" result="effect1_innerShadow_226_29698"/>
</filter>
<filter id="filter5_i_226_29698" x="41.0569" y="291.481" width="165.124" height="100.664" filterUnits="userSpaceOnUse" color-interpolation-filters="sRGB">
<feFlood flood-opacity="0" result="BackgroundImageFix"/>
<feBlend mode="normal" in="SourceGraphic" in2="BackgroundImageFix" result="shape"/>
<feColorMatrix in="SourceAlpha" type="matrix" values="0 0 0 0 0 0 0 0 0 0 0 0 0 0 0 0 0 0 127 0" result="hardAlpha"/>
<feOffset dx="-5" dy="-17"/>
<feGaussianBlur stdDeviation="1.5"/>
<feComposite in2="hardAlpha" operator="arithmetic" k2="-1" k3="1"/>
<feColorMatrix type="matrix" values="0 0 0 0 0.141667 0 0 0 0 0.170204 0 0 0 0 0.425 0 0 0 0.34 0"/>
<feBlend mode="darken" in2="shape" result="effect1_innerShadow_226_29698"/>
</filter>
</defs>
</svg>
