<svg width="23" height="15" viewBox="0 0 23 15" fill="none" xmlns="http://www.w3.org/2000/svg">
<path d="M21.8225 10.1222C21.5543 9.87433 21.118 9.87433 20.8489 10.1222L18.8098 12.0001V3.33809C18.8098 1.58878 17.2639 0.165981 15.3654 0.165981H9.99206C9.61179 0.165981 9.30317 0.450202 9.30317 0.800403C9.30317 1.1506 9.61179 1.43482 9.99206 1.43482H15.3654C16.5043 1.43482 17.432 2.28918 17.432 3.33809V12.0001L15.3929 10.1222C15.1238 9.87433 14.6875 9.87433 14.4193 10.1222C14.1511 10.37 14.1493 10.7718 14.4193 11.0188L17.6341 13.9795C17.7673 14.1038 17.9436 14.1656 18.1209 14.1656C18.2982 14.1656 18.4727 14.1047 18.6077 13.9795L21.8225 11.0188C22.0926 10.7718 22.0926 10.37 21.8225 10.1222ZM12.0312 12.8967H6.65785C5.51889 12.8967 4.59119 12.0424 4.59119 10.9934V2.33147L6.6303 4.20936C6.76624 4.33371 6.94259 4.39546 7.11895 4.39546C7.2953 4.39546 7.47165 4.33371 7.60576 4.20936C7.87488 3.96152 7.87488 3.55971 7.60576 3.31271L4.39096 0.352078C4.12183 0.103385 3.68554 0.103385 3.41733 0.352078L0.202532 3.31271C-0.0675108 3.55971 -0.0675108 3.96152 0.202532 4.20936C0.472576 4.45721 0.907033 4.45721 1.17616 4.20936L3.21526 2.33147V10.9934C3.21526 12.7428 4.76112 14.1656 6.65969 14.1656H12.033C12.4133 14.1656 12.7219 13.8813 12.7219 13.5311C12.7219 13.1809 12.4123 12.8967 12.033 12.8967H12.0312Z" fill="white"/>
</svg>
