<svg width="18" height="18" viewBox="0 0 18 18" fill="none" xmlns="http://www.w3.org/2000/svg">
<path fill-rule="evenodd" clip-rule="evenodd" d="M9.47679 0.360342L13.9768 4.7923C14.2405 5.05201 14.2405 5.47216 13.9768 5.73187C13.8454 5.86306 13.6726 5.92688 13.4998 5.92688C13.327 5.92688 13.1542 5.86217 13.0228 5.73187L9.67479 2.4345V11.4668C9.67479 11.8338 9.37239 12.1316 8.99979 12.1316C8.62719 12.1316 8.32479 11.8338 8.32479 11.4668V2.4345L4.97679 5.73187C4.71309 5.99247 4.28739 5.9907 4.02279 5.73187C3.75819 5.47304 3.75819 5.05201 4.02279 4.7923L8.52279 0.360342C8.78559 0.10063 9.21309 0.10063 9.47679 0.360342ZM2.0628 17.622H15.9372C17.0748 17.622 18 16.7108 18 15.5904V10.5805C18 10.2135 17.6976 9.91569 17.325 9.91569C16.9524 9.91569 16.65 10.2135 16.65 10.5805V15.5904C16.65 15.9777 16.3305 16.2924 15.9372 16.2924H2.0628C1.6695 16.2924 1.35 15.9777 1.35 15.5904V10.5805C1.35 10.2135 1.0476 9.91569 0.675 9.91569C0.3024 9.91569 0 10.2135 0 10.5805V15.5904C0 16.7108 0.9252 17.622 2.0628 17.622Z" fill="white"/>
</svg>
