<svg width="16" height="16" viewBox="0 0 16 16" fill="none" xmlns="http://www.w3.org/2000/svg">
<g id="home_black_24dp 9" clip-path="url(#clip0_316_1929)">
<path id="telegram 1 (Traced)" fill-rule="evenodd" clip-rule="evenodd" d="M8.03749 4.91535C4.83352 6.15179 2.18538 7.18091 2.15272 7.20229C2.0736 7.25415 2.0001 7.37855 2 7.46081C1.99986 7.56194 2.05844 7.68084 2.13486 7.73451C2.17257 7.76099 2.83367 8.017 3.60398 8.30341C4.3743 8.58985 5.01625 8.83642 5.03054 8.85139C5.04481 8.86635 5.29653 9.65429 5.58991 10.6024C5.88329 11.5505 6.14008 12.3625 6.16055 12.4068C6.18105 12.4511 6.23099 12.5077 6.27155 12.5324C6.35465 12.5831 6.52478 12.5921 6.60345 12.55C6.63177 12.5348 7.00006 12.2406 7.42186 11.8962C8.34296 11.1441 8.3121 11.1672 8.43684 11.1391C8.63388 11.0949 8.6723 11.1174 9.83035 11.9579C11.8625 13.4328 11.7144 13.3317 11.8429 13.3317C11.976 13.3317 12.07 13.273 12.1337 13.1502C12.1971 13.0278 14.2653 3.03583 14.2472 2.9392C14.2196 2.79208 14.0653 2.66447 13.9175 2.66653C13.8875 2.66694 11.2415 3.67889 8.03749 4.91535ZM11.5957 4.89711C11.6115 4.91291 11.6244 4.94337 11.6244 4.96479C11.6244 4.98622 10.744 5.82173 9.66786 6.82146C7.05051 9.25312 6.94689 9.3515 6.87717 9.47046C6.7849 9.6279 6.74949 9.78659 6.66727 10.4108C6.62418 10.738 6.57699 11.0086 6.55767 11.0393C6.52257 11.095 6.42329 11.1115 6.3609 11.072C6.34313 11.0607 6.18787 10.5626 6.01587 9.96505C5.68359 8.81073 5.66451 8.70968 5.74416 8.52597C5.76545 8.47687 5.81783 8.4037 5.86057 8.36341C5.95645 8.27296 11.4783 4.86912 11.5298 4.86869C11.5502 4.86852 11.5799 4.88131 11.5957 4.89711Z" fill="white"/>
</g>
<defs>
<clipPath id="clip0_316_1929">
<rect width="16" height="16" fill="white"/>
</clipPath>
</defs>
</svg>
