<svg width="16" height="16" viewBox="0 0 16 16" fill="none" xmlns="http://www.w3.org/2000/svg">
<g id="home_black_24dp 2" clip-path="url(#clip0_316_1878)">
<path id="Vector" d="M1.0344 1.00134C1.0885 1.00134 1.11855 1.00134 1.14827 1.00134C2.46903 1.00134 3.78945 1.00201 5.1102 1C5.17899 1 5.21907 1.02216 5.26048 1.0779C5.71431 1.69272 6.17181 2.30485 6.62765 2.91765C7.31491 3.84172 8.00217 4.76613 8.6891 5.69054C8.70546 5.7127 8.72283 5.73419 8.74386 5.76139C8.91952 5.571 9.0915 5.38498 9.26315 5.19862C9.94106 4.46259 10.619 3.72655 11.2965 2.99052C11.891 2.34447 12.4851 1.69776 13.0808 1.05272C13.1042 1.0272 13.1449 1.00403 13.178 1.00369C13.5507 1.00034 13.923 1.00168 14.2957 1.00168C14.3064 1.00168 14.3171 1.00437 14.3481 1.00873C12.6587 2.84412 10.9786 4.66876 9.29254 6.50078C11.1924 9.05508 13.0902 11.606 15 14.1737C14.9509 14.1737 14.9215 14.1737 14.8925 14.1737C13.5717 14.1737 12.2513 14.1731 10.9305 14.1758C10.8577 14.1758 10.8147 14.1519 10.7726 14.0952C9.94006 12.973 9.10586 11.8521 8.27166 10.7313C7.86726 10.1877 7.46285 9.64404 7.05811 9.10007C7.03673 9.0712 7.01469 9.04299 6.98764 9.0074C6.90215 9.09839 6.82034 9.18435 6.73986 9.27166C5.93004 10.1514 5.12022 11.0312 4.31074 11.9112C3.64451 12.6352 2.97829 13.3591 2.31408 14.0851C2.25797 14.1465 2.20187 14.1778 2.11471 14.1764C1.77843 14.1711 1.44181 14.1741 1.10553 14.1741H1C2.82267 12.194 4.62965 10.2313 6.43797 8.267C4.63834 5.84702 2.84305 3.43308 1.0344 1.00134ZM13.1907 13.2634C13.1266 13.1758 13.0761 13.106 13.0247 13.0371C12.2112 11.9428 11.3981 10.8488 10.5842 9.75485C9.68726 8.54906 8.78995 7.3436 7.89264 6.1378C6.86074 4.75102 5.82852 3.36424 4.79796 1.97612C4.76256 1.92877 4.72683 1.91064 4.66772 1.91098C4.09234 1.91333 3.51695 1.91232 2.94156 1.91232H2.84772C2.86943 1.9459 2.88145 1.96672 2.89548 1.98586C3.03974 2.18095 3.18434 2.3757 3.32894 2.57045C4.06095 3.55463 4.79329 4.53914 5.52563 5.52332C6.51578 6.85436 7.50626 8.18507 8.49674 9.51577C9.41042 10.7437 10.3244 11.9717 11.2368 13.2006C11.2728 13.2493 11.3106 13.2648 11.3687 13.2648C11.9414 13.2628 12.5138 13.2638 13.0865 13.2638C13.1135 13.2638 13.1406 13.2638 13.1903 13.2638L13.1907 13.2634Z" fill="black"/>
</g>
<defs>
<clipPath id="clip0_316_1878">
<rect width="16" height="16" fill="black"/>
</clipPath>
</defs>
</svg>
