<svg width="33" height="32" viewBox="0 0 33 32" fill="none" xmlns="http://www.w3.org/2000/svg">
<rect x="0.5" width="32" height="32" rx="16" fill="#D2D8E0" fill-opacity="0.4"/>
<rect x="0.5" width="32" height="32" rx="16" fill="#2F45C6"/>
<g clip-path="url(#clip0_180_28888)">
<path d="M9.5344 9.00134C9.5885 9.00134 9.61855 9.00134 9.64827 9.00134C10.969 9.00134 12.2894 9.00201 13.6102 9C13.679 9 13.7191 9.02216 13.7605 9.0779C14.2143 9.69272 14.6718 10.3048 15.1277 10.9177C15.8149 11.8417 16.5022 12.7661 17.1891 13.6905C17.2055 13.7127 17.2228 13.7342 17.2439 13.7614C17.4195 13.571 17.5915 13.385 17.7631 13.1986C18.4411 12.4626 19.119 11.7266 19.7965 10.9905C20.391 10.3445 20.9851 9.69776 21.5808 9.05272C21.6042 9.0272 21.6449 9.00403 21.678 9.00369C22.0507 9.00034 22.423 9.00168 22.7957 9.00168C22.8064 9.00168 22.8171 9.00437 22.8481 9.00873C21.1587 10.8441 19.4786 12.6688 17.7925 14.5008C19.6924 17.0551 21.5902 19.606 23.5 22.1737C23.4509 22.1737 23.4215 22.1737 23.3925 22.1737C22.0717 22.1737 20.7513 22.1731 19.4305 22.1758C19.3577 22.1758 19.3147 22.1519 19.2726 22.0952C18.4401 20.973 17.6059 19.8521 16.7717 18.7313C16.3673 18.1877 15.9628 17.644 15.5581 17.1001C15.5367 17.0712 15.5147 17.043 15.4876 17.0074C15.4022 17.0984 15.3203 17.1844 15.2399 17.2717C14.43 18.1514 13.6202 19.0312 12.8107 19.9112C12.1445 20.6352 11.4783 21.3591 10.8141 22.0851C10.758 22.1465 10.7019 22.1778 10.6147 22.1764C10.2784 22.1711 9.94181 22.1741 9.60553 22.1741H9.5C11.3227 20.194 13.1297 18.2313 14.938 16.267C13.1383 13.847 11.343 11.4331 9.5344 9.00134ZM21.6907 21.2634C21.6266 21.1758 21.5761 21.106 21.5247 21.0371C20.7112 19.9428 19.8981 18.8488 19.0842 17.7548C18.1873 16.5491 17.2899 15.3436 16.3926 14.1378C15.3607 12.751 14.3285 11.3642 13.298 9.97612C13.2626 9.92877 13.2268 9.91064 13.1677 9.91098C12.5923 9.91333 12.0169 9.91232 11.4416 9.91232H11.3477C11.3694 9.9459 11.3814 9.96672 11.3955 9.98586C11.5397 10.1809 11.6843 10.3757 11.8289 10.5705C12.5609 11.5546 13.2933 12.5391 14.0256 13.5233C15.0158 14.8544 16.0063 16.1851 16.9967 17.5158C17.9104 18.7437 18.8244 19.9717 19.7368 21.2006C19.7728 21.2493 19.8106 21.2648 19.8687 21.2648C20.4414 21.2628 21.0138 21.2638 21.5865 21.2638C21.6135 21.2638 21.6406 21.2638 21.6903 21.2638L21.6907 21.2634Z" fill="white"/>
</g>
<defs>
<clipPath id="clip0_180_28888">
<rect width="16" height="16" fill="white" transform="translate(8.5 8)"/>
</clipPath>
</defs>
</svg>
