<svg width="41" height="42" viewBox="0 0 41 42" fill="none" xmlns="http://www.w3.org/2000/svg">
<rect x="0.5" y="1" width="40" height="40" rx="8" stroke="black" stroke-width="0.5"/>
<rect x="4.5" y="5" width="32" height="32" rx="4" fill="black" fill-opacity="0.6"/>
<path d="M29.4427 25.8354C28.7864 21.8866 26.7432 18.9461 24.967 17.219C24.4501 16.7164 24.1917 16.4651 23.6208 16.2326C23.0499 16 22.5592 16 21.5778 16H19.4222C18.4408 16 17.9501 16 17.3792 16.2326C16.8083 16.4651 16.5499 16.7164 16.033 17.219C14.2568 18.9461 12.2136 21.8866 11.5573 25.8354C11.0689 28.7734 13.7793 31 16.8083 31H24.1917C27.2207 31 29.9311 28.7734 29.4427 25.8354Z" fill="#284A93" stroke="#284A93" stroke-width="1.5" stroke-linecap="round" stroke-linejoin="round"/>
<path d="M15.7566 13.4429C15.5503 13.1426 15.2513 12.735 15.869 12.6421C16.5039 12.5465 17.1632 12.9811 17.8085 12.9722C18.3924 12.9641 18.6898 12.7052 19.0089 12.3355C19.3449 11.9462 19.8652 11 20.5 11C21.1348 11 21.6551 11.9462 21.9911 12.3355C22.3102 12.7052 22.6076 12.9641 23.1914 12.9722C23.8368 12.9811 24.4961 12.5465 25.131 12.6421C25.7487 12.735 25.4497 13.1426 25.2434 13.4429L24.3105 14.8006C23.9115 15.3815 23.712 15.6719 23.2944 15.8359C22.8769 16 22.3373 16 21.2582 16H19.7418C18.6627 16 18.1231 16 17.7056 15.8359C17.288 15.6719 17.0885 15.3815 16.6895 14.8006L15.7566 13.4429Z" fill="#407BFF" stroke="#407BFF" stroke-width="1.5" stroke-linejoin="round"/>
<path d="M22.1267 21.9186C21.9105 21.1205 20.8101 20.4003 19.4892 20.9391C18.1683 21.4778 17.9585 23.2113 19.9565 23.3955C20.8595 23.4787 21.4483 23.2989 21.9873 23.8076C22.5264 24.3162 22.6265 25.7308 21.2485 26.112C19.8705 26.4932 18.506 25.8976 18.3574 25.0517M20.3417 19.9927V20.7531M20.3417 26.2293V26.9927" stroke="#121C35" stroke-width="1.5" stroke-linecap="round" stroke-linejoin="round"/>
</svg>
