<svg width="68" height="103" viewBox="0 0 68 103" fill="none" xmlns="http://www.w3.org/2000/svg">
<path d="M68 51.7155C68 66.4723 56.0534 78.4352 41.3165 78.4352C40.3258 78.4352 39.3478 78.3811 38.3852 78.2758C25.0274 76.8142 14.6329 65.4804 14.6329 51.7155C14.6329 37.7741 25.2956 26.3266 38.9003 25.1039C39.6961 25.0324 40.502 24.9958 41.3165 24.9958C56.0534 24.9958 68 36.9586 68 51.7155Z" fill="#2F45C6"/>
<path d="M38.3852 78.2758C25.0274 76.8142 14.6329 65.4804 14.6329 51.7155C14.6329 37.7741 25.2956 26.3266 38.9003 25.1039C27.524 25.2338 7.04188 20.5132 0 0V103C3.84629 94.3341 16.7421 77.8446 38.3852 78.2758Z" fill="#2F45C6"/>
</svg>
