<svg width="20" height="20" viewBox="0 0 20 20" fill="none" xmlns="http://www.w3.org/2000/svg">
<path d="M14.1864 2.52806L13.3909 2.31611C11.141 1.71663 10.016 1.4169 9.12975 1.9257C8.24346 2.4345 7.94202 3.55314 7.33915 5.79042L6.48655 8.95442C5.88366 11.1917 5.58223 12.3103 6.09391 13.1916C6.6056 14.0729 7.73059 14.3726 9.98058 14.9721L10.7761 15.1841C13.026 15.7835 14.151 16.0832 15.0372 15.5745C15.9235 15.0657 16.225 13.947 16.8278 11.7097L17.6804 8.54575C18.2833 6.30846 18.5847 5.18981 18.0731 4.30855C17.5614 3.42728 16.4364 3.12754 14.1864 2.52806Z" stroke="#7E8EA7" stroke-width="1.5"/>
<path d="M14.0449 6.19417C14.0449 6.87257 13.4918 7.42253 12.8096 7.42253C12.1273 7.42253 11.5742 6.87257 11.5742 6.19417C11.5742 5.51577 12.1273 4.96582 12.8096 4.96582C13.4918 4.96582 14.0449 5.51577 14.0449 6.19417Z" stroke="#7E8EA7" stroke-width="1.5"/>
<path d="M9.99984 17.4552L9.20626 17.6712C6.96153 18.2825 5.83919 18.5882 4.955 18.0693C4.07081 17.5506 3.77008 16.41 3.16861 14.1288L2.31802 10.9027C1.71656 8.62157 1.41582 7.481 1.92631 6.58244C2.3679 5.80516 3.33317 5.83346 4.58317 5.83336" stroke="#7E8EA7" stroke-width="1.5" stroke-linecap="round"/>
</svg>
