<svg width="21" height="21" viewBox="0 0 21 21" fill="none" xmlns="http://www.w3.org/2000/svg">
<path d="M19.2311 9.93416C19.2311 14.3368 15.4996 17.9064 10.8978 17.9064C10.3567 17.9072 9.81712 17.8571 9.28562 17.7573C8.90306 17.6854 8.71177 17.6495 8.57823 17.6699C8.44468 17.6903 8.25544 17.7909 7.87695 17.9922C6.80624 18.5617 5.55774 18.7627 4.35704 18.5394C4.8134 17.9781 5.12508 17.3046 5.2626 16.5826C5.34594 16.1409 5.13945 15.7119 4.83019 15.3978C3.42556 13.9715 2.56445 12.0495 2.56445 9.93416C2.56445 5.53156 6.29594 1.96191 10.8978 1.96191C15.4996 1.96191 19.2311 5.53156 19.2311 9.93416Z" stroke="#7E8EA7" stroke-width="1.28742" stroke-linejoin="round"/>
<path d="M9.23145 8.50037C9.23145 7.65071 9.97761 6.96191 10.8981 6.96191C11.8186 6.96191 12.5648 7.65071 12.5648 8.50037C12.5648 8.80666 12.4679 9.092 12.3007 9.33175C11.8026 10.0462 10.8981 10.7277 10.8981 11.5773V11.9619" stroke="#7E8EA7" stroke-width="1.28742" stroke-linecap="round"/>
<path d="M10.8979 14.0452H10.9057" stroke="#7E8EA7" stroke-width="1.28742" stroke-linecap="round" stroke-linejoin="round"/>
</svg>
