<svg width="21" height="21" viewBox="0 0 21 21" fill="none" xmlns="http://www.w3.org/2000/svg">
<path d="M6.07994 13.5028C4.90097 14.2048 1.80977 15.6382 3.69252 17.4319C4.61223 18.3081 5.63654 18.9348 6.92436 18.9348H14.2729C15.5607 18.9348 16.5851 18.3081 17.5047 17.4319C19.3875 15.6382 16.2963 14.2048 15.1173 13.5028C12.3526 11.8565 8.84463 11.8565 6.07994 13.5028Z" stroke="#7E8EA7" stroke-width="1.5" stroke-linecap="round" stroke-linejoin="round"/>
<path d="M14.3486 6.01807C14.3486 8.08913 12.6697 9.76807 10.5986 9.76807C8.52757 9.76807 6.84863 8.08913 6.84863 6.01807C6.84863 3.947 8.52757 2.26807 10.5986 2.26807C12.6697 2.26807 14.3486 3.947 14.3486 6.01807Z" stroke="#7E8EA7" stroke-width="1.5"/>
</svg>
